<?xml version="1.0" encoding="UTF-8"?>
<svg xmlns="http://www.w3.org/2000/svg" xmlns:xlink="http://www.w3.org/1999/xlink" width="810pt" height="809.999993pt" viewBox="0 0 810 809.999993" version="1.2">
<defs>
<clipPath id="clip1">
  <path d="M 401 421 L 764 421 L 764 783.453125 L 401 783.453125 Z M 401 421 "/>
</clipPath>
</defs>
<g id="surface1">
<g clip-path="url(#clip1)" clip-rule="nonzero">
<path style=" stroke:none;fill-rule:nonzero;fill:rgb(45.098877%,45.098877%,45.098877%);fill-opacity:1;" d="M 763.292969 728.398438 C 763.292969 758.753906 738.683594 783.351562 708.320312 783.351562 L 456.40625 783.351562 C 426.027344 783.351562 401.441406 758.753906 401.441406 728.398438 L 401.441406 476.5 C 401.441406 446.132812 426.027344 421.539062 456.40625 421.539062 L 708.320312 421.539062 C 738.683594 421.539062 763.292969 446.132812 763.292969 476.5 Z M 763.292969 728.398438 "/>
</g>
<path style=" stroke:none;fill-rule:nonzero;fill:rgb(100%,100%,100%);fill-opacity:1;" d="M 517.695312 503.527344 C 517.695312 522.667969 502.125 538.21875 482.980469 538.21875 C 463.816406 538.21875 448.269531 522.667969 448.269531 503.527344 C 448.269531 484.363281 463.816406 468.808594 482.980469 468.808594 C 502.125 468.808594 517.695312 484.363281 517.695312 503.527344 Z M 517.695312 503.527344 "/>
<path style=" stroke:none;fill-rule:nonzero;fill:rgb(100%,100%,100%);fill-opacity:1;" d="M 517.695312 602.464844 C 517.695312 621.609375 502.125 637.160156 482.980469 637.160156 C 463.816406 637.160156 448.269531 621.609375 448.269531 602.464844 C 448.269531 583.300781 463.816406 567.75 482.980469 567.75 C 502.125 567.75 517.695312 583.300781 517.695312 602.464844 Z M 517.695312 602.464844 "/>
<path style=" stroke:none;fill-rule:nonzero;fill:rgb(100%,100%,100%);fill-opacity:1;" d="M 517.695312 701.394531 C 517.695312 720.570312 502.125 736.085938 482.980469 736.085938 C 463.816406 736.085938 448.269531 720.570312 448.269531 701.394531 C 448.269531 682.230469 463.816406 666.695312 482.980469 666.695312 C 502.125 666.695312 517.695312 682.230469 517.695312 701.394531 Z M 517.695312 701.394531 "/>
<path style=" stroke:none;fill-rule:nonzero;fill:rgb(100%,100%,100%);fill-opacity:1;" d="M 716.453125 503.527344 C 716.453125 522.667969 700.894531 538.21875 681.753906 538.21875 C 662.582031 538.21875 647.035156 522.667969 647.035156 503.527344 C 647.035156 484.363281 662.582031 468.808594 681.753906 468.808594 C 700.894531 468.808594 716.453125 484.363281 716.453125 503.527344 Z M 716.453125 503.527344 "/>
<path style=" stroke:none;fill-rule:nonzero;fill:rgb(100%,100%,100%);fill-opacity:1;" d="M 716.453125 602.464844 C 716.453125 621.609375 700.894531 637.160156 681.753906 637.160156 C 662.582031 637.160156 647.035156 621.609375 647.035156 602.464844 C 647.035156 583.300781 662.582031 567.75 681.753906 567.75 C 700.894531 567.75 716.453125 583.300781 716.453125 602.464844 Z M 716.453125 602.464844 "/>
<path style=" stroke:none;fill-rule:nonzero;fill:rgb(100%,100%,100%);fill-opacity:1;" d="M 716.453125 701.394531 C 716.453125 720.570312 700.894531 736.085938 681.753906 736.085938 C 662.582031 736.085938 647.035156 720.570312 647.035156 701.394531 C 647.035156 682.230469 662.582031 666.695312 681.753906 666.695312 C 700.894531 666.695312 716.453125 682.230469 716.453125 701.394531 Z M 716.453125 701.394531 "/>
<path style=" stroke:none;fill-rule:nonzero;fill:rgb(45.098877%,45.098877%,45.098877%);fill-opacity:1;" d="M 499.402344 267.0625 C 515.753906 292.636719 508.253906 326.617188 482.675781 342.949219 L 270.371094 478.570312 C 244.777344 494.921875 210.816406 487.425781 194.472656 461.839844 L 58.839844 249.5625 C 42.503906 223.96875 49.988281 190 75.578125 173.652344 L 287.882812 38.054688 C 313.464844 21.714844 347.4375 29.175781 363.785156 54.757812 Z M 499.402344 267.0625 "/>
<path style=" stroke:none;fill-rule:nonzero;fill:rgb(100%,100%,100%);fill-opacity:1;" d="M 171.371094 209.75 C 181.679688 225.890625 176.929688 247.367188 160.800781 257.683594 C 144.648438 268.007812 123.167969 263.253906 112.867188 247.125 C 102.550781 230.964844 107.273438 209.507812 123.421875 199.1875 C 139.5625 188.878906 161.054688 193.597656 171.371094 209.75 Z M 171.371094 209.75 "/>
<path style=" stroke:none;fill-rule:nonzero;fill:rgb(100%,100%,100%);fill-opacity:1;" d="M 224.636719 293.136719 C 234.957031 309.285156 230.203125 330.75 214.066406 341.058594 C 197.914062 351.375 176.445312 346.644531 166.140625 330.492188 C 155.820312 314.351562 160.542969 292.886719 176.691406 282.5625 C 192.839844 272.257812 214.3125 276.972656 224.636719 293.136719 Z M 224.636719 293.136719 "/>
<path style=" stroke:none;fill-rule:nonzero;fill:rgb(100%,100%,100%);fill-opacity:1;" d="M 277.902344 376.511719 C 288.226562 392.667969 283.464844 414.132812 267.324219 424.433594 C 251.1875 434.75 229.722656 430.035156 219.402344 413.878906 C 209.082031 397.726562 213.824219 376.269531 229.964844 365.949219 C 246.097656 355.644531 267.578125 360.351562 277.902344 376.511719 Z M 277.902344 376.511719 "/>
<path style=" stroke:none;fill-rule:nonzero;fill:rgb(100%,100%,100%);fill-opacity:1;" d="M 338.867188 102.761719 C 349.171875 118.890625 344.429688 140.378906 328.308594 150.671875 C 312.148438 161.007812 290.679688 156.269531 280.375 140.128906 C 270.050781 123.964844 274.773438 102.503906 290.933594 92.191406 C 307.054688 81.882812 328.546875 86.605469 338.867188 102.761719 Z M 338.867188 102.761719 "/>
<path style=" stroke:none;fill-rule:nonzero;fill:rgb(100%,100%,100%);fill-opacity:1;" d="M 392.136719 186.136719 C 402.449219 202.285156 397.703125 223.75 381.570312 234.042969 C 365.40625 244.378906 343.953125 239.644531 333.628906 223.511719 C 323.316406 207.351562 328.042969 185.894531 344.207031 175.578125 C 360.332031 165.273438 381.820312 169.980469 392.136719 186.136719 Z M 392.136719 186.136719 "/>
<path style=" stroke:none;fill-rule:nonzero;fill:rgb(100%,100%,100%);fill-opacity:1;" d="M 445.398438 269.515625 C 455.71875 285.671875 450.960938 307.128906 434.839844 317.433594 C 418.679688 327.753906 397.234375 323.035156 386.898438 306.886719 C 376.578125 290.726562 381.316406 269.269531 397.472656 258.953125 C 413.605469 248.648438 435.089844 253.355469 445.398438 269.515625 Z M 445.398438 269.515625 "/>
</g>
</svg>
