<?xml version="1.0" encoding="UTF-8"?>
<svg xmlns="http://www.w3.org/2000/svg" xmlns:xlink="http://www.w3.org/1999/xlink" width="810pt" height="809.999993pt" viewBox="0 0 810 809.999993" version="1.2">
<g id="surface1">
<path style=" stroke:none;fill-rule:nonzero;fill:rgb(45.098877%,45.098877%,45.098877%);fill-opacity:1;" d="M 750.546875 512.742188 L 637.636719 399.738281 C 631.476562 393.570312 623.800781 389.488281 615.464844 387.640625 C 618.378906 377.640625 620.894531 366.34375 623.023438 353.253906 C 623.082031 352.890625 623.121094 352.542969 623.140625 352.183594 L 626.851562 279.3125 C 628.222656 252.460938 639.4375 227.195312 658.441406 208.183594 L 728.140625 138.425781 C 734.5625 131.996094 738.089844 123.457031 738.089844 114.375 C 738.089844 105.292969 734.554688 96.753906 728.140625 90.324219 L 713.59375 75.765625 C 685.125 47.261719 627.203125 59.351562 598.0625 88.527344 L 538.925781 150.71875 C 531.355469 158.730469 521.113281 163.222656 510.09375 163.378906 C 498.910156 163.476562 488.71875 159.316406 480.925781 151.523438 L 454.789062 125.363281 L 389.074219 59.59375 C 375.730469 46.230469 357.988281 38.570312 340.390625 38.570312 C 325.769531 38.570312 312.398438 43.898438 302.71875 53.582031 C 286.570312 69.746094 283.683594 94.730469 293.140625 116.972656 C 291.4375 116.824219 289.738281 116.699219 288.027344 116.699219 C 273.402344 116.699219 260.035156 122.027344 250.355469 131.714844 C 234.34375 147.742188 231.378906 172.433594 240.550781 194.527344 C 237.664062 194.121094 234.769531 193.839844 231.863281 193.839844 C 217.25 193.839844 203.871094 199.167969 194.203125 208.855469 C 184.351562 218.707031 179.160156 232.058594 179.25 246.8125 L 126.351562 193.867188 C 114.378906 181.886719 99.328125 174.214844 83.976562 172.277344 C 67.679688 170.226562 53.074219 174.769531 42.796875 185.058594 C 22.1875 205.683594 26.140625 243.195312 51.597656 268.671875 L 349.078125 566.375 C 362.34375 579.660156 379.492188 588.042969 397.304688 590.339844 C 395.84375 603.585938 399.964844 617.328125 410.089844 627.460938 L 523 740.464844 C 531.539062 749.011719 542.9375 753.71875 555.085938 753.71875 C 567.230469 753.71875 578.628906 749.011719 587.167969 740.464844 L 750.539062 576.957031 C 768.230469 559.257812 768.230469 530.453125 750.546875 512.742188 Z M 322.464844 126.269531 C 304.585938 108.363281 301.894531 81.933594 316.46875 67.335938 C 322.472656 61.324219 330.964844 58.019531 340.402344 58.019531 C 352.878906 58.019531 365.617188 63.601562 375.34375 73.34375 L 441.058594 139.117188 C 449.890625 147.957031 455.273438 159.140625 456.226562 170.617188 C 457.121094 181.488281 453.875 191.222656 447.0625 198.039062 C 441.058594 204.050781 432.554688 207.355469 423.128906 207.355469 C 414.996094 207.355469 406.835938 204.78125 399.390625 200.433594 L 336.730469 137.714844 C 332.675781 133.660156 328.1875 130.199219 323.445312 127.25 Z M 270.109375 204.390625 C 252.222656 186.488281 249.53125 160.054688 264.105469 145.457031 C 270.109375 139.445312 278.601562 136.140625 288.039062 136.140625 C 296.160156 136.140625 304.3125 138.71875 311.757812 143.054688 L 374.429688 205.78125 C 378.480469 209.835938 382.972656 213.289062 387.703125 216.246094 L 388.695312 217.238281 C 397.527344 226.078125 402.910156 237.261719 403.863281 248.738281 C 404.757812 259.609375 401.511719 269.34375 394.699219 276.160156 C 388.695312 282.171875 380.191406 285.476562 370.765625 285.476562 C 358.28125 285.476562 345.550781 279.894531 335.824219 270.160156 L 280.554688 214.84375 Z M 198.777344 250.019531 C 197.886719 239.148438 201.140625 229.414062 207.941406 222.597656 C 213.945312 216.585938 222.441406 213.277344 231.863281 213.277344 C 244.351562 213.277344 257.082031 218.863281 266.816406 228.605469 L 322.085938 283.921875 L 332.539062 294.386719 C 341.375 303.226562 346.757812 314.417969 347.707031 325.886719 C 348.601562 336.757812 345.347656 346.492188 338.546875 353.308594 C 332.539062 359.320312 324.039062 362.625 314.613281 362.625 C 302.136719 362.625 289.398438 357.042969 279.671875 347.308594 L 213.957031 281.539062 C 205.113281 272.679688 199.730469 261.496094 198.777344 250.019531 Z M 403.753906 571.394531 C 388.792969 570.402344 374.0625 563.859375 362.828125 552.625 L 65.347656 254.914062 C 47.761719 237.308594 43.738281 211.617188 56.542969 198.796875 C 62.492188 192.847656 71.363281 190.289062 81.546875 191.5625 C 92.644531 192.964844 103.671875 198.664062 112.609375 207.609375 L 200.199219 295.269531 L 265.914062 361.042969 C 279.261719 374.402344 297.007812 382.058594 314.59375 382.058594 C 329.207031 382.058594 342.585938 376.726562 352.257812 367.042969 C 363.179688 356.121094 368.425781 340.929688 367.046875 324.269531 C 366.480469 317.414062 364.742188 310.675781 362.078125 304.238281 C 364.964844 304.644531 367.851562 304.929688 370.746094 304.929688 C 385.359375 304.929688 398.742188 299.597656 408.417969 289.914062 C 419.332031 278.992188 424.585938 263.800781 423.207031 247.132812 C 422.625 240.070312 420.808594 233.136719 417.988281 226.523438 C 419.691406 226.671875 421.402344 226.796875 423.101562 226.796875 C 437.714844 226.796875 451.09375 221.46875 460.773438 211.78125 C 470.957031 201.589844 476.136719 187.664062 475.667969 172.308594 C 481.898438 176.605469 488.835938 179.628906 496.152344 181.292969 C 459.421875 212.054688 410.722656 271.472656 435.636719 358.054688 C 436.859375 362.316406 440.746094 365.097656 444.964844 365.097656 C 445.859375 365.097656 446.761719 364.96875 447.65625 364.707031 C 452.816406 363.21875 455.789062 357.832031 454.300781 352.667969 C 424.441406 248.929688 512.632812 190.105469 535.359375 176.917969 C 541.878906 173.785156 547.863281 169.515625 552.996094 164.089844 L 611.9375 102.09375 C 633.867188 80.144531 680.421875 70.097656 699.816406 89.507812 L 714.363281 104.066406 C 717.113281 106.820312 718.617188 110.476562 718.617188 114.367188 C 718.617188 118.253906 717.101562 121.902344 714.363281 124.65625 L 644.664062 194.421875 C 622.257812 216.847656 609.023438 246.644531 607.410156 278.320312 L 603.71875 350.65625 C 601.316406 365.339844 598.429688 377.496094 595.019531 387.816406 C 586.90625 389.722656 579.433594 393.71875 573.429688 399.738281 L 410.101562 563.246094 C 407.601562 565.746094 405.550781 568.507812 403.753906 571.394531 Z M 736.808594 563.214844 L 573.441406 726.714844 C 563.695312 736.46875 546.496094 736.46875 536.75 726.714844 L 423.839844 613.707031 C 413.722656 603.585938 413.722656 587.121094 423.839844 576.996094 L 587.207031 413.488281 C 590.746094 409.949219 595.167969 407.605469 599.984375 406.566406 C 600.695312 406.730469 601.40625 406.953125 602.113281 406.953125 C 603.511719 406.953125 604.84375 406.554688 606.097656 405.980469 C 612.839844 406.117188 619.15625 408.742188 623.898438 413.488281 L 736.808594 526.492188 C 746.914062 536.617188 746.914062 553.09375 736.808594 563.214844 Z M 736.808594 563.214844 "/>
</g>
</svg>
