<?xml version="1.0" encoding="UTF-8"?>
<svg xmlns="http://www.w3.org/2000/svg" xmlns:xlink="http://www.w3.org/1999/xlink" width="810pt" height="809.999993pt" viewBox="0 0 810 809.999993" version="1.2">
<defs>
<clipPath id="clip1">
  <path d="M 20.207031 42.566406 L 749.957031 42.566406 L 749.957031 767.648438 L 20.207031 767.648438 Z M 20.207031 42.566406 "/>
</clipPath>
</defs>
<g id="surface1">
<g clip-path="url(#clip1)" clip-rule="nonzero">
<path style=" stroke:none;fill-rule:nonzero;fill:rgb(45.098877%,45.098877%,45.098877%);fill-opacity:1;" d="M 420.78125 591.691406 L 494.3125 708.175781 C 503.835938 722.753906 499.6875 742.382812 485.113281 751.90625 C 470.46875 761.429688 450.90625 757.347656 441.316406 742.707031 C 440.667969 741.734375 440.152344 740.699219 439.566406 739.664062 L 391.300781 647.859375 Z M 349.386719 591.691406 L 378.929688 647.859375 L 330.597656 739.664062 C 322.757812 755.277344 303.710938 761.496094 288.097656 753.65625 C 272.550781 745.753906 266.265625 726.769531 274.167969 711.15625 C 274.6875 710.121094 275.269531 709.148438 275.917969 708.175781 Z M 385.148438 535.132812 L 414.105469 581.066406 L 385.148438 636.132812 L 356.125 581.066406 Z M 475.328125 392.152344 C 484.207031 399.148438 494.054688 404.847656 504.484375 409.058594 L 419.9375 569.859375 L 391.5625 524.898438 Z M 294.835938 392.152344 L 378.667969 524.898438 L 350.292969 569.859375 L 265.683594 409.058594 C 276.175781 404.847656 286.023438 399.148438 294.835938 392.152344 Z M 438.011719 260.765625 L 637.035156 375.628906 C 618.183594 387.679688 597.710938 396.816406 576.136719 402.710938 C 519.449219 418.257812 460.882812 384.828125 445.332031 328.140625 C 445.203125 327.753906 445.140625 327.363281 445.011719 326.976562 C 439.375 305.402344 436.976562 283.050781 438.011719 260.765625 Z M 332.152344 260.765625 C 333.1875 283.050781 330.855469 305.402344 325.15625 326.976562 C 310.253906 383.859375 252.078125 417.933594 195.195312 402.96875 C 194.804688 402.90625 194.417969 402.777344 194.09375 402.710938 C 172.519531 396.816406 151.984375 387.679688 133.195312 375.628906 Z M 486.667969 172.914062 L 497.292969 212.691406 L 537.070312 202.003906 L 547.628906 241.78125 L 587.410156 231.09375 L 598.035156 270.871094 L 637.8125 260.179688 L 648.4375 299.960938 L 688.214844 289.269531 L 696.378906 319.785156 C 682.644531 338.636719 665.996094 355.15625 647.078125 368.828125 L 438.917969 248.648438 C 441.253906 225.261719 447.277344 202.390625 456.867188 180.882812 Z M 283.628906 172.914062 L 313.363281 180.882812 C 322.886719 202.390625 328.976562 225.261719 331.308594 248.648438 L 123.152344 368.828125 C 104.234375 355.15625 87.585938 338.636719 73.785156 319.785156 L 82.011719 289.269531 L 121.726562 299.960938 L 132.417969 260.179688 L 172.132812 270.871094 L 182.820312 231.09375 L 222.535156 241.78125 L 233.222656 202.003906 L 272.875 212.691406 Z M 509.472656 133.332031 L 520.097656 173.109375 L 559.875 162.484375 L 570.5 202.261719 L 610.277344 191.574219 L 620.902344 231.285156 L 660.617188 220.660156 L 671.308594 260.375 L 711.019531 249.75 L 719.25 280.589844 C 714.972656 290.046875 710.050781 299.183594 704.476562 307.929688 L 695.925781 275.925781 L 656.210938 286.550781 L 645.523438 246.835938 L 605.808594 257.460938 L 595.117188 217.746094 L 555.40625 228.4375 L 544.714844 188.65625 L 505 199.28125 L 494.3125 159.570312 L 463.214844 167.859375 C 468.007812 158.660156 473.515625 149.851562 479.539062 141.363281 Z M 260.757812 133.332031 L 290.625 141.363281 C 296.714844 149.851562 302.222656 158.660156 307.015625 167.859375 L 275.851562 159.570312 L 265.164062 199.28125 L 225.449219 188.65625 L 214.761719 228.4375 L 175.046875 217.746094 L 164.421875 257.460938 L 124.707031 246.835938 L 114.019531 286.550781 L 74.304688 275.925781 L 65.6875 307.929688 C 60.117188 299.183594 55.191406 290.046875 50.917969 280.589844 L 59.144531 249.75 L 98.921875 260.375 L 109.546875 220.660156 L 149.328125 231.285156 L 159.953125 191.574219 L 199.730469 202.261719 L 210.355469 162.484375 L 250.070312 173.109375 Z M 529.816406 91.21875 L 737.972656 211.398438 C 736.160156 229.277344 732.207031 246.898438 726.117188 263.808594 L 718.730469 236.339844 L 679.015625 247.03125 L 668.390625 207.316406 L 628.613281 217.941406 L 617.988281 178.164062 L 578.210938 188.851562 L 567.585938 149.074219 L 527.804688 159.761719 L 517.179688 119.984375 L 490.8125 127.046875 C 502.34375 113.570312 515.433594 101.519531 529.816406 91.21875 Z M 240.414062 91.21875 C 254.796875 101.519531 267.882812 113.570312 279.351562 127.046875 L 253.046875 119.984375 L 242.359375 159.761719 L 202.644531 149.074219 L 191.957031 188.851562 L 152.242188 178.164062 L 141.550781 217.941406 L 101.839844 207.316406 L 91.148438 247.03125 L 51.433594 236.339844 L 44.050781 263.808594 C 38.023438 246.898438 34.070312 229.277344 32.257812 211.398438 Z M 137.859375 53.578125 C 148.484375 53.253906 159.171875 54.484375 169.476562 57.335938 C 190.984375 63.230469 211.585938 72.300781 230.375 84.351562 L 31.351562 199.28125 C 30.3125 176.929688 32.648438 154.582031 38.347656 132.941406 C 50.269531 87.398438 90.757812 55.132812 137.859375 53.578125 Z M 630.363281 53.515625 C 678.175781 54.226562 719.703125 86.683594 731.882812 132.941406 C 737.519531 154.582031 739.914062 176.929688 738.878906 199.28125 L 539.792969 84.351562 C 558.644531 72.300781 579.183594 63.167969 600.753906 57.335938 C 610.410156 54.679688 620.386719 53.382812 630.363281 53.515625 Z M 630.558594 42.628906 C 619.480469 42.5 608.53125 43.859375 597.839844 46.777344 C 475.070312 80.398438 402.1875 206.667969 434.515625 329.828125 C 440.019531 350.816406 451.292969 369.929688 467.035156 384.960938 L 385.148438 514.660156 L 303.257812 384.960938 C 319 369.929688 330.273438 350.816406 335.78125 329.828125 C 368.109375 206.667969 295.222656 80.398438 172.390625 46.777344 C 109.871094 29.671875 45.28125 66.472656 28.175781 129.054688 C 28.046875 129.441406 27.980469 129.832031 27.851562 130.21875 C -4.410156 253.378906 68.410156 379.582031 191.242188 413.207031 C 212.234375 418.972656 234.390625 418.777344 255.25 412.6875 L 343.554688 580.546875 L 266.71875 702.28125 C 254.085938 722.105469 259.917969 748.410156 279.742188 761.042969 C 299.566406 773.609375 325.867188 767.78125 338.5 747.957031 C 339.148438 746.917969 339.796875 745.882812 340.316406 744.78125 L 385.148438 659.585938 L 429.914062 744.78125 C 440.796875 765.640625 466.519531 773.742188 487.316406 762.855469 C 508.175781 751.972656 516.273438 726.316406 505.390625 705.457031 C 504.808594 704.355469 504.222656 703.316406 503.578125 702.28125 L 426.738281 580.546875 L 514.980469 412.6875 C 535.90625 418.777344 558.0625 418.972656 579.050781 413.207031 C 701.820312 379.582031 774.707031 253.378906 742.441406 130.21875 C 729.03125 79.234375 683.292969 43.40625 630.558594 42.628906 "/>
</g>
<path style=" stroke:none;fill-rule:nonzero;fill:rgb(45.098877%,45.098877%,45.098877%);fill-opacity:1;" d="M 569.464844 376.214844 C 569.464844 370.511719 564.863281 365.914062 559.164062 365.847656 C 553.460938 365.847656 548.796875 370.445312 548.796875 376.214844 C 548.796875 381.914062 553.398438 386.578125 559.097656 386.578125 C 564.800781 386.578125 569.464844 381.980469 569.464844 376.277344 C 569.464844 376.277344 569.464844 376.214844 569.464844 376.214844 "/>
<path style=" stroke:none;fill-rule:nonzero;fill:rgb(45.098877%,45.098877%,45.098877%);fill-opacity:1;" d="M 486.796875 328.53125 C 486.992188 322.828125 482.519531 318.101562 476.820312 317.90625 C 471.117188 317.710938 466.390625 322.179688 466.195312 327.882812 C 466.195312 328.078125 466.195312 328.335938 466.195312 328.53125 C 466 334.230469 470.46875 338.960938 476.171875 339.15625 C 481.871094 339.351562 486.601562 334.878906 486.796875 329.179688 C 486.796875 328.984375 486.796875 328.726562 486.796875 328.53125 "/>
<path style=" stroke:none;fill-rule:nonzero;fill:rgb(45.098877%,45.098877%,45.098877%);fill-opacity:1;" d="M 528.128906 352.371094 C 528.324219 346.671875 523.855469 341.941406 518.152344 341.746094 C 512.453125 341.550781 507.65625 346.023438 507.527344 351.722656 C 507.464844 351.917969 507.464844 352.175781 507.527344 352.371094 C 507.332031 358.074219 511.804688 362.800781 517.503906 362.996094 C 523.207031 363.191406 527.9375 358.722656 528.128906 353.019531 C 528.128906 352.824219 528.128906 352.566406 528.128906 352.371094 "/>
<path style=" stroke:none;fill-rule:nonzero;fill:rgb(45.098877%,45.098877%,45.098877%);fill-opacity:1;" d="M 710.761719 131.515625 C 710.890625 125.816406 706.484375 121.019531 700.785156 120.828125 C 695.082031 120.632812 690.289062 125.101562 690.09375 130.804688 C 690.09375 131.0625 690.09375 131.257812 690.09375 131.515625 C 689.902344 137.152344 694.371094 141.945312 700.074219 142.140625 C 705.773438 142.335938 710.566406 137.867188 710.761719 132.164062 C 710.761719 131.90625 710.761719 131.710938 710.761719 131.515625 "/>
<path style=" stroke:none;fill-rule:nonzero;fill:rgb(45.098877%,45.098877%,45.098877%);fill-opacity:1;" d="M 628.09375 83.769531 C 628.160156 78.066406 623.496094 73.46875 617.792969 73.46875 C 612.09375 73.402344 607.492188 78.066406 607.492188 83.769531 C 607.429688 89.535156 612.09375 94.132812 617.792969 94.132812 C 623.496094 94.132812 628.09375 89.535156 628.09375 83.832031 C 628.09375 83.832031 628.09375 83.832031 628.09375 83.769531 "/>
<path style=" stroke:none;fill-rule:nonzero;fill:rgb(45.098877%,45.098877%,45.098877%);fill-opacity:1;" d="M 669.429688 107.609375 C 669.621094 101.972656 665.152344 97.179688 659.453125 96.984375 C 653.75 96.789062 648.957031 101.261719 648.761719 106.960938 C 648.761719 107.222656 648.761719 107.414062 648.761719 107.609375 C 648.632812 113.3125 653.039062 118.105469 658.738281 118.300781 C 664.441406 118.496094 669.234375 114.023438 669.429688 108.324219 C 669.429688 108.0625 669.429688 107.871094 669.429688 107.609375 "/>
<path style=" stroke:none;fill-rule:nonzero;fill:rgb(45.098877%,45.098877%,45.098877%);fill-opacity:1;" d="M 221.433594 376.214844 C 221.628906 370.511719 217.15625 365.78125 211.457031 365.589844 C 205.753906 365.394531 201.027344 369.863281 200.832031 375.566406 C 200.832031 375.757812 200.832031 376.019531 200.832031 376.214844 C 200.636719 381.914062 205.105469 386.707031 210.808594 386.839844 C 216.507812 387.03125 221.238281 382.5625 221.433594 376.859375 C 221.433594 376.667969 221.433594 376.472656 221.433594 376.214844 "/>
<path style=" stroke:none;fill-rule:nonzero;fill:rgb(45.098877%,45.098877%,45.098877%);fill-opacity:1;" d="M 304.101562 328.53125 C 304.292969 322.828125 299.824219 318.101562 294.125 317.90625 C 288.421875 317.710938 283.691406 322.179688 283.5 327.882812 C 283.5 328.078125 283.5 328.335938 283.5 328.53125 C 283.304688 334.230469 287.773438 338.960938 293.476562 339.15625 C 299.175781 339.351562 303.90625 334.878906 304.101562 329.179688 C 304.101562 328.984375 304.101562 328.726562 304.101562 328.53125 "/>
<path style=" stroke:none;fill-rule:nonzero;fill:rgb(45.098877%,45.098877%,45.098877%);fill-opacity:1;" d="M 262.765625 352.371094 C 262.960938 346.671875 258.492188 341.941406 252.789062 341.746094 C 247.089844 341.550781 242.359375 346.023438 242.164062 351.722656 C 242.164062 351.917969 242.164062 352.175781 242.164062 352.371094 C 241.96875 358.074219 246.441406 362.867188 252.140625 362.996094 C 257.84375 363.191406 262.574219 358.722656 262.765625 353.019531 C 262.765625 352.824219 262.765625 352.632812 262.765625 352.371094 "/>
<path style=" stroke:none;fill-rule:nonzero;fill:rgb(45.098877%,45.098877%,45.098877%);fill-opacity:1;" d="M 80.136719 131.515625 C 80.328125 125.816406 75.859375 121.019531 70.15625 120.828125 C 64.457031 120.632812 59.726562 125.101562 59.53125 130.804688 C 59.53125 131.0625 59.53125 131.257812 59.53125 131.515625 C 59.339844 137.152344 63.808594 141.945312 69.511719 142.140625 C 75.210938 142.335938 80.003906 137.867188 80.136719 132.164062 C 80.136719 131.90625 80.136719 131.710938 80.136719 131.515625 "/>
<path style=" stroke:none;fill-rule:nonzero;fill:rgb(45.098877%,45.098877%,45.098877%);fill-opacity:1;" d="M 162.738281 83.769531 C 162.929688 78.132812 158.460938 73.339844 152.761719 73.144531 C 147.125 72.949219 142.328125 77.417969 142.136719 83.121094 C 142.136719 83.378906 142.136719 83.574219 142.136719 83.769531 C 141.941406 89.46875 146.410156 94.265625 152.113281 94.457031 C 157.8125 94.652344 162.609375 90.183594 162.738281 84.480469 C 162.800781 84.222656 162.800781 84.027344 162.738281 83.769531 "/>
<path style=" stroke:none;fill-rule:nonzero;fill:rgb(45.098877%,45.098877%,45.098877%);fill-opacity:1;" d="M 121.46875 107.609375 C 121.664062 101.972656 117.191406 97.179688 111.492188 96.984375 C 105.855469 96.789062 101.0625 101.261719 100.867188 106.960938 C 100.867188 107.222656 100.867188 107.414062 100.867188 107.609375 C 100.671875 113.3125 105.140625 118.105469 110.84375 118.300781 C 116.542969 118.496094 121.273438 114.023438 121.46875 108.324219 C 121.46875 108.0625 121.46875 107.871094 121.46875 107.609375 "/>
</g>
</svg>
