<?xml version="1.0" encoding="UTF-8"?>
<svg xmlns="http://www.w3.org/2000/svg" xmlns:xlink="http://www.w3.org/1999/xlink" width="810pt" height="809.999993pt" viewBox="0 0 810 809.999993" version="1.2">
<defs>
<clipPath id="clip1">
  <path d="M 155.386719 22.109375 L 711.886719 22.109375 L 711.886719 787.859375 L 155.386719 787.859375 Z M 155.386719 22.109375 "/>
</clipPath>
</defs>
<g id="surface1">
<g clip-path="url(#clip1)" clip-rule="nonzero">
<path style=" stroke:none;fill-rule:nonzero;fill:rgb(45.098877%,45.098877%,45.098877%);fill-opacity:1;" d="M 610.183594 231.589844 C 610.714844 230.816406 611.34375 230.023438 611.828125 229.273438 C 613.925781 226.089844 616.027344 222.132812 617.980469 217.863281 C 658.148438 209.636719 686.996094 174.660156 686.996094 133.265625 C 686.996094 85.601562 648.179688 46.808594 600.480469 46.808594 C 561.835938 46.808594 528.476562 71.96875 517.613281 108.566406 L 504.769531 108.566406 C 515.898438 65.214844 554.980469 34.460938 600.480469 34.460938 C 655.011719 34.460938 699.351562 78.796875 699.351562 133.265625 C 699.351562 184.480469 660.152344 226.691406 610.183594 231.589844 Z M 543.828125 85.382812 L 567.023438 108.566406 L 530.574219 108.566406 C 533.617188 99.929688 538.15625 92.136719 543.828125 85.382812 Z M 594.300781 108.566406 L 584.5 108.566406 L 552.566406 76.648438 C 564.082031 66.929688 578.539062 60.707031 594.300781 59.425781 Z M 625.199219 127.089844 L 625.199219 117.296875 L 657.0625 85.480469 C 666.742188 96.890625 673.019531 111.289062 674.320312 127.089844 Z M 657.183594 181.199219 L 625.199219 149.234375 L 625.199219 139.441406 L 674.371094 139.441406 C 673.066406 155.242188 666.886719 169.691406 657.183594 181.199219 Z M 625.199219 189.421875 L 625.199219 166.699219 L 648.421875 189.90625 C 641.105469 196.082031 632.511719 200.832031 623.027344 203.824219 C 624.355469 198.902344 625.199219 193.984375 625.199219 189.421875 Z M 648.324219 76.746094 L 616.460938 108.566406 L 606.660156 108.566406 L 606.660156 59.476562 C 622.472656 60.777344 636.859375 67.050781 648.324219 76.746094 Z M 517.179688 290.472656 L 510.539062 294.863281 C 496.273438 304.367188 483.070312 316.066406 483.070312 337.054688 C 483.070312 393.71875 474.792969 403.679688 452.679688 430.289062 C 449.15625 434.511719 445.34375 439.140625 440.902344 444.714844 C 436.796875 450.671875 433.03125 455.859375 429.578125 460.609375 C 412.851562 483.671875 402.738281 497.589844 402.738281 534.667969 L 402.738281 701.402344 C 402.738281 704.441406 404.957031 707.023438 407.976562 707.507812 C 492.074219 720.605469 534.945312 750.832031 553 767.667969 C 556.453125 770.875 557.441406 773.359375 557.25 774.640625 C 557.152344 775.171875 556.863281 775.4375 556.960938 775.507812 L 224.136719 775.605469 C 224.136719 775.605469 223.628906 775.339844 223.507812 774.617188 C 223.316406 773.359375 224.304688 770.875 227.757812 767.667969 C 242.359375 754.039062 285.761719 720.894531 372.78125 707.507812 C 375.796875 707.046875 378.019531 704.441406 378.019531 701.402344 L 378.019531 534.667969 C 378.019531 497.589844 367.90625 483.671875 351.175781 460.609375 C 347.726562 455.859375 343.960938 450.671875 339.589844 444.375 C 335.414062 439.140625 331.601562 434.511719 328.078125 430.289062 C 305.964844 403.65625 297.6875 393.695312 297.6875 337.054688 C 297.6875 316.066406 284.480469 304.367188 270.214844 294.863281 L 263.578125 290.472656 C 239.027344 274.238281 193.335938 244.039062 179.261719 222.519531 C 173.757812 214.101562 167.917969 199.652344 167.917969 189.421875 L 167.917969 120.914062 L 612.839844 120.914062 L 612.839844 189.421875 C 612.839844 199.652344 607 214.101562 601.496094 222.519531 C 599.226562 225.992188 596.0625 229.707031 592.371094 233.519531 C 592.273438 233.617188 592.203125 233.6875 592.128906 233.785156 C 572.867188 253.613281 537.671875 276.917969 517.179688 290.472656 Z M 600.480469 22.109375 C 548.246094 22.109375 503.539062 58.195312 492.121094 108.566406 L 161.738281 108.566406 C 158.332031 108.566406 155.558594 111.316406 155.558594 114.738281 L 155.558594 189.421875 C 155.558594 202.761719 162.484375 219.433594 168.929688 229.273438 C 184.402344 252.9375 229.6875 282.875 256.746094 300.75 L 263.359375 305.140625 C 276.925781 314.160156 285.328125 322.652344 285.328125 337.054688 C 285.328125 398.179688 295.753906 410.699219 318.566406 438.175781 C 322.042969 442.351562 325.808594 446.886719 329.667969 451.710938 C 333.820312 457.765625 337.660156 463.046875 341.160156 467.871094 C 357.476562 490.328125 365.660156 501.59375 365.660156 534.667969 L 365.660156 696.144531 C 278.714844 710.570312 234.464844 744.511719 219.308594 758.644531 C 209.507812 767.789062 210.570312 775.628906 212.089844 779.488281 C 214.046875 784.410156 218.753906 787.859375 223.53125 787.859375 L 557.226562 787.859375 C 562.003906 787.859375 566.710938 784.410156 568.667969 779.488281 C 570.1875 775.628906 571.273438 767.789062 561.449219 758.644531 C 542.71875 741.179688 499.050781 710.183594 415.097656 696.144531 L 415.097656 534.667969 C 415.097656 501.59375 423.28125 490.328125 439.597656 467.871094 C 443.097656 463.046875 446.933594 457.765625 450.820312 452.046875 C 454.949219 446.886719 458.714844 442.351562 462.167969 438.199219 C 485 410.699219 495.429688 398.179688 495.429688 337.054688 C 495.429688 322.652344 503.828125 314.160156 517.394531 305.140625 L 524.011719 300.75 C 545.542969 286.515625 578.585938 264.664062 598.984375 244.398438 C 599.492188 244.398438 599.972656 244.421875 600.480469 244.421875 C 661.816406 244.421875 711.710938 194.5625 711.710938 133.265625 C 711.710938 71.96875 661.816406 22.109375 600.480469 22.109375 "/>
</g>
<path style=" stroke:none;fill-rule:nonzero;fill:rgb(45.098877%,45.098877%,45.098877%);fill-opacity:1;" d="M 577.765625 215.164062 C 553.652344 239.308594 525.097656 257.425781 502.164062 271.996094 C 496.226562 275.757812 490.722656 279.257812 485.53125 282.707031 C 458.351562 303.089844 458.351562 318.191406 458.351562 343.230469 C 458.351562 418.445312 415.773438 429.683594 390.378906 429.683594 C 364.984375 429.683594 322.402344 418.445312 322.402344 343.230469 C 322.402344 318.191406 322.402344 303.089844 294.933594 282.511719 C 290.035156 279.257812 284.53125 275.757812 278.59375 271.996094 C 255.660156 257.425781 227.105469 239.308594 202.988281 215.164062 C 196.425781 208.578125 192.660156 199.191406 192.660156 189.421875 L 192.660156 188.84375 L 588.097656 188.84375 L 588.097656 189.421875 C 588.097656 199.191406 584.332031 208.578125 577.765625 215.164062 Z M 490.09375 145.617188 C 491.277344 156.304688 493.910156 166.652344 498.085938 176.492188 L 192.632812 176.492188 L 192.632812 145.617188 Z M 588.121094 154.347656 L 588.097656 176.492188 L 565.964844 176.492188 Z M 511.675781 176.492188 C 506.894531 166.75 503.828125 156.375 502.503906 145.617188 L 514.886719 145.617188 C 516.453125 156.519531 520.097656 166.964844 525.652344 176.492188 Z M 540.398438 176.492188 C 533.714844 167.253906 529.273438 156.738281 527.390625 145.617188 L 579.382812 145.617188 L 548.488281 176.492188 Z M 600.457031 182.742188 C 600.457031 182.71875 600.480469 182.695312 600.480469 182.667969 C 600.480469 182.644531 600.457031 182.621094 600.457031 182.597656 L 600.480469 139.441406 C 600.480469 138.644531 600.3125 137.847656 600.023438 137.101562 C 599.707031 136.355469 599.25 135.652344 598.671875 135.074219 C 598.089844 134.496094 597.390625 134.039062 596.644531 133.722656 C 595.894531 133.410156 595.097656 133.265625 594.300781 133.265625 L 186.453125 133.265625 C 184.8125 133.265625 183.246094 133.917969 182.085938 135.074219 C 180.925781 136.234375 180.277344 137.800781 180.277344 139.441406 L 180.277344 182.597656 C 180.277344 182.621094 180.277344 182.644531 180.277344 182.667969 C 180.277344 182.695312 180.277344 182.71875 180.277344 182.742188 L 180.300781 189.421875 C 180.300781 202.449219 185.367188 214.992188 194.25 223.894531 C 219.332031 249.007812 248.515625 267.53125 271.976562 282.417969 C 277.820312 286.132812 283.25 289.582031 287.789062 292.597656 C 310.042969 309.265625 310.042969 319.203125 310.042969 343.230469 C 310.042969 432.410156 366.214844 442.035156 390.378906 442.035156 C 414.542969 442.035156 470.710938 432.410156 470.710938 343.230469 C 470.710938 319.203125 470.710938 309.265625 492.679688 292.789062 C 497.503906 289.582031 502.9375 286.132812 508.777344 282.417969 C 532.242188 267.53125 561.425781 249.007812 586.503906 223.894531 C 595.386719 214.992188 600.457031 202.449219 600.457031 189.421875 L 600.457031 182.742188 "/>
</g>
</svg>
