<?xml version="1.0" encoding="UTF-8"?>
<svg xmlns="http://www.w3.org/2000/svg" xmlns:xlink="http://www.w3.org/1999/xlink" width="810pt" height="809.999993pt" viewBox="0 0 810 809.999993" version="1.2">
<defs>
<clipPath id="clip1">
  <path d="M 514 290 L 729 290 L 729 467 L 514 467 Z M 514 290 "/>
</clipPath>
<clipPath id="clip2">
  <path d="M 81 173 L 310 173 L 310 334 L 81 334 Z M 81 173 "/>
</clipPath>
</defs>
<g id="surface1">
<path style=" stroke:none;fill-rule:nonzero;fill:rgb(45.098877%,45.098877%,45.098877%);fill-opacity:1;" d="M 199.125 811.410156 C 261.992188 790.53125 329.21875 779.195312 399.097656 779.195312 C 468.980469 779.195312 536.207031 790.53125 599.082031 811.410156 C 548.027344 759.992188 477.289062 728.132812 399.097656 728.132812 C 320.914062 728.132812 250.175781 759.992188 199.125 811.410156 "/>
<path style=" stroke:none;fill-rule:nonzero;fill:rgb(45.098877%,45.098877%,45.098877%);fill-opacity:1;" d="M 504.390625 352.90625 C 502.320312 355.371094 499.058594 358.832031 495.414062 363.59375 C 493.566406 365.953125 491.453125 368.53125 489.269531 371.410156 C 487.148438 374.328125 484.847656 377.488281 482.390625 380.859375 C 477.621094 387.695312 472.375 395.503906 467.03125 404.234375 C 464.261719 408.542969 461.710938 413.207031 458.882812 417.945312 C 456.101562 422.710938 453.46875 427.746094 450.621094 432.867188 C 447.898438 438.042969 445.144531 443.382812 442.375 448.859375 C 439.734375 454.386719 436.867188 459.976562 434.25 465.773438 C 431.582031 471.554688 428.859375 477.429688 426.289062 483.453125 C 423.628906 489.445312 421.101562 495.566406 418.554688 501.738281 C 415.976562 507.902344 413.605469 514.195312 411.101562 520.472656 C 408.761719 526.800781 406.28125 533.121094 404.035156 539.511719 C 385.542969 590.507812 371.328125 642.855469 362.570312 682.695312 C 360.355469 692.652344 358.496094 701.839844 356.949219 710.03125 C 355.421875 718.226562 354.167969 725.410156 353.265625 731.414062 C 352.335938 737.246094 351.691406 742.5625 351.335938 745.589844 C 350.984375 748.707031 350.792969 750.371094 350.792969 750.371094 L 384.199219 753.335938 C 384.199219 753.335938 384.316406 751.664062 384.527344 748.535156 C 384.773438 745.3125 385.0625 741.457031 385.714844 735.675781 C 386.300781 730.050781 387.191406 723.15625 388.3125 715.242188 C 389.445312 707.328125 390.855469 698.386719 392.570312 688.632812 C 399.351562 649.636719 411 597.765625 426.851562 547.203125 C 428.769531 540.855469 430.917969 534.601562 432.925781 528.316406 C 435.09375 522.09375 437.136719 515.847656 439.382812 509.738281 C 441.597656 503.613281 443.800781 497.535156 446.132812 491.597656 C 448.375 485.621094 450.765625 479.804688 453.113281 474.0625 C 455.40625 468.304688 457.941406 462.78125 460.273438 457.292969 C 462.726562 451.871094 465.164062 446.578125 467.578125 441.453125 C 470.105469 436.390625 472.445312 431.390625 474.925781 426.679688 C 477.449219 422 479.722656 417.359375 482.195312 413.109375 C 486.972656 404.472656 491.671875 396.765625 495.953125 390.011719 C 498.15625 386.683594 500.222656 383.570312 502.128906 380.6875 C 504.09375 377.847656 505.992188 375.320312 507.652344 372.992188 C 510.933594 368.28125 513.859375 364.898438 515.722656 362.46875 C 517.621094 360.070312 518.636719 358.792969 518.636719 358.792969 L 507.625 349.175781 C 507.625 349.175781 506.496094 350.476562 504.390625 352.90625 "/>
<path style=" stroke:none;fill-rule:nonzero;fill:rgb(45.098877%,45.098877%,45.098877%);fill-opacity:1;" d="M 380.1875 740.421875 C 380.015625 737.601562 379.808594 734.359375 379.585938 730.730469 C 379.367188 727.085938 379.132812 723.046875 378.867188 718.65625 C 378.628906 714.164062 378.375 709.304688 378.089844 704.121094 C 377.523438 693.703125 376.882812 681.945312 376.183594 669.121094 C 375.414062 656.273438 374.636719 642.355469 373.574219 627.613281 C 372.648438 612.886719 371.347656 597.347656 370.070312 581.28125 C 369.449219 573.25 368.582031 565.085938 367.835938 556.828125 C 367.03125 548.566406 366.347656 540.203125 365.34375 531.78125 C 364.410156 523.367188 363.464844 514.886719 362.519531 506.367188 C 361.621094 497.851562 360.347656 489.320312 359.28125 480.785156 L 357.601562 467.996094 C 357.0625 463.730469 356.496094 459.472656 355.808594 455.238281 C 354.503906 446.761719 353.207031 438.320312 351.921875 429.945312 C 351.25 425.761719 350.703125 421.585938 349.945312 417.453125 C 349.199219 413.3125 348.460938 409.203125 347.722656 405.109375 C 346.253906 396.933594 344.804688 388.859375 343.375 380.917969 C 340.203125 365.078125 336.933594 349.808594 333.871094 335.347656 C 330.359375 320.960938 327.035156 307.359375 323.972656 294.8125 C 320.445312 282.378906 317.210938 270.980469 314.335938 260.875 C 313.625 258.351562 312.925781 255.90625 312.261719 253.554688 C 311.53125 251.210938 310.753906 248.976562 310.046875 246.816406 C 308.617188 242.5 307.304688 238.53125 306.121094 234.953125 C 301.382812 220.648438 298.671875 212.46875 298.671875 212.46875 L 284.800781 217.070312 C 284.800781 217.070312 287.085938 225.234375 291.082031 239.519531 C 292.082031 243.085938 293.191406 247.03125 294.394531 251.335938 C 294.988281 253.488281 295.640625 255.71875 296.253906 258.050781 C 296.800781 260.402344 297.375 262.832031 297.960938 265.351562 C 300.3125 275.40625 302.96875 286.746094 305.871094 299.121094 C 308.300781 311.601562 310.9375 325.125 313.730469 339.425781 C 316.078125 353.808594 318.589844 368.972656 320.980469 384.683594 C 322.015625 392.5625 323.070312 400.582031 324.136719 408.695312 C 324.671875 412.746094 325.210938 416.828125 325.75 420.925781 C 326.3125 425.023438 326.660156 429.175781 327.128906 433.328125 C 328.003906 441.628906 328.894531 449.992188 329.785156 458.394531 C 330.265625 462.589844 330.628906 466.808594 330.964844 471.039062 L 332.027344 483.71875 C 332.683594 492.179688 333.542969 500.605469 334.035156 509.054688 C 334.574219 517.488281 335.109375 525.898438 335.644531 534.234375 C 336.242188 542.554688 336.53125 550.851562 336.941406 559.03125 C 337.296875 567.214844 337.785156 575.285156 338.015625 583.246094 C 338.535156 599.167969 339.101562 614.539062 339.339844 629.15625 C 339.703125 643.746094 339.828125 657.585938 339.992188 670.339844 C 340.089844 683.132812 340.183594 694.863281 340.261719 705.253906 C 340.296875 710.472656 340.328125 715.355469 340.363281 719.867188 C 340.414062 724.480469 340.46875 728.710938 340.519531 732.539062 C 340.578125 736.375 340.632812 739.800781 340.679688 742.789062 C 340.777344 745.6875 340.855469 748.160156 340.921875 750.160156 C 341.054688 754.160156 341.125 756.296875 341.125 756.296875 L 381.265625 753.898438 C 381.265625 753.898438 381.09375 751.769531 380.773438 747.777344 C 380.613281 745.78125 380.417969 743.320312 380.1875 740.421875 "/>
<path style=" stroke:none;fill-rule:nonzero;fill:rgb(45.098877%,45.098877%,45.098877%);fill-opacity:1;" d="M 588.484375 427.4375 C 585.636719 420.972656 582.402344 414.835938 578.660156 409.511719 C 582.238281 415.480469 585.492188 421.347656 588.484375 427.4375 "/>
<path style=" stroke:none;fill-rule:nonzero;fill:rgb(45.098877%,45.098877%,45.098877%);fill-opacity:1;" d="M 525.945312 445.636719 C 526.023438 446.105469 526.128906 446.578125 526.28125 447.054688 C 526.15625 446.570312 526.0625 446.105469 525.945312 445.636719 "/>
<path style=" stroke:none;fill-rule:nonzero;fill:rgb(45.098877%,45.098877%,45.098877%);fill-opacity:1;" d="M 589 471.625 C 593.449219 475.230469 597.03125 479.882812 599.398438 485.09375 C 596.617188 473.703125 591.851562 462.796875 585.375 453.023438 C 595.65625 459.699219 602.027344 470.511719 606.984375 481.828125 C 602.085938 469.054688 597.007812 446.757812 588.484375 427.4375 C 585.492188 421.347656 582.238281 415.480469 578.660156 409.511719 C 582.402344 414.835938 585.636719 420.972656 588.484375 427.4375 C 589.953125 430.421875 591.382812 433.453125 592.714844 436.601562 C 588.597656 420.074219 581.800781 404.21875 572.683594 389.84375 C 578.539062 392.484375 583.292969 397.484375 585.636719 403.460938 C 579.210938 386.03125 565.648438 372.203125 551.226562 360.492188 C 557.089844 362.09375 562.625 364.875 567.417969 368.609375 C 555.429688 356.332031 538.03125 349.539062 520.890625 350.449219 C 519.355469 350.527344 517.734375 350.699219 516.519531 351.640625 C 515.300781 352.578125 514.90625 355.152344 515.949219 356.28125 C 515.613281 369.355469 514.5625 382.890625 513.476562 396.015625 C 512.660156 405.855469 513.351562 415.25 515.023438 424.964844 C 516.132812 431.410156 516.085938 439.941406 518.867188 445.859375 C 516.285156 440.1875 518.347656 429.855469 518.417969 423.640625 C 518.558594 411.878906 519.078125 398.46875 522.5625 387.199219 C 520.890625 398.59375 521.515625 409.722656 522.835938 421.070312 C 523.828125 429.605469 523.949219 437.347656 525.945312 445.636719 C 525.503906 442.949219 526.222656 440.324219 526.648438 437.597656 C 527.664062 431.019531 527.863281 424.378906 528.542969 417.753906 C 529.339844 410.03125 531.96875 403.476562 534.386719 396.1875 C 534.828125 405.144531 532.765625 414.328125 531.960938 423.257812 C 531.21875 431.554688 532.179688 439.308594 533.246094 447.515625 C 533.457031 441.867188 532.746094 436.804688 533.6875 431.097656 C 535.085938 422.59375 538.558594 414.488281 539.8125 406.058594 C 539.816406 428.292969 534.796875 455.429688 543.554688 476.726562 C 541.828125 471.125 542.078125 464.691406 542.578125 458.902344 C 543.25 451.085938 543.335938 442.808594 545.589844 435.25 C 545.457031 445.472656 546.128906 455.691406 547.054688 465.871094 C 547.804688 474.0625 547.488281 484.691406 550.53125 492.371094 C 550.671875 486.167969 550.097656 479.890625 550.097656 473.65625 C 550.097656 465.957031 548.292969 455.382812 550.40625 447.976562 C 551.46875 458.097656 554.183594 467.722656 556.636719 477.574219 C 558.46875 484.941406 558.355469 492.640625 559.574219 500.132812 C 559.402344 490.542969 556.925781 477.351562 559.554688 468.171875 C 560.445312 489.128906 562.375 511.316406 563.265625 532.269531 C 563.710938 524.933594 565.414062 517.679688 568.273438 510.90625 C 571.25 523.945312 574.566406 536.910156 578.230469 549.773438 C 576.753906 541.699219 576.445312 533.417969 577.328125 525.257812 C 584.121094 542.867188 591.285156 560.328125 598.816406 577.632812 C 596.4375 567.234375 594.058594 556.835938 591.679688 546.429688 C 595.996094 552.316406 599.445312 558.839844 601.875 565.726562 C 597.433594 551.945312 595.535156 537.351562 596.308594 522.894531 C 600.28125 533.171875 604.011719 543.898438 606.910156 554.53125 C 606.390625 534.851562 601.929688 515.289062 593.863281 497.324219 C 602.285156 506.953125 606.167969 519.617188 609.824219 531.875 C 606.503906 510.773438 599.410156 490.28125 589 471.625 "/>
<path style=" stroke:none;fill-rule:nonzero;fill:rgb(45.098877%,45.098877%,45.098877%);fill-opacity:1;" d="M 251.898438 124.011719 C 256.601562 128.894531 261.015625 133.949219 265.417969 139.339844 C 261.675781 134.011719 257.011719 128.886719 251.898438 124.011719 "/>
<path style=" stroke:none;fill-rule:nonzero;fill:rgb(45.098877%,45.098877%,45.098877%);fill-opacity:1;" d="M 213.535156 176.648438 C 213.132812 176.386719 212.726562 176.132812 212.324219 175.859375 C 212.71875 176.160156 213.121094 176.417969 213.535156 176.648438 "/>
<path style=" stroke:none;fill-rule:nonzero;fill:rgb(45.098877%,45.098877%,45.098877%);fill-opacity:1;" d="M 302.210938 181.789062 C 296.097656 164.246094 287.6875 146.789062 273.480469 134.824219 C 278.308594 139.066406 281.394531 145.234375 281.886719 151.640625 C 271.460938 138.179688 258.855469 126.402344 244.707031 116.921875 C 247.21875 119.246094 249.582031 121.617188 251.898438 124.011719 C 257.011719 128.886719 261.675781 134.011719 265.417969 139.339844 C 261.015625 133.949219 256.601562 128.894531 251.898438 124.011719 C 236.613281 109.441406 217.359375 97.09375 207.011719 88.148438 C 215.96875 96.652344 223.980469 106.316406 226.769531 118.25 C 219.769531 108.839844 211.128906 100.65625 201.355469 94.171875 C 205.464844 98.160156 208.621094 103.121094 210.496094 108.523438 C 196.492188 92.394531 179.609375 78.773438 160.894531 68.480469 C 171.179688 76.085938 181.777344 84.03125 187.980469 95.21875 C 173.816406 81.539062 156.933594 70.699219 138.59375 63.523438 C 147.613281 69.863281 156.4375 77.011719 164.757812 84.25 C 150.898438 80.058594 137.816406 73.316406 126.363281 64.460938 C 132.011719 69.085938 136.972656 74.542969 141.042969 80.597656 C 132.070312 74.832031 123.09375 69.066406 114.117188 63.292969 C 127.839844 76.25 141.828125 88.921875 156.082031 101.289062 C 148.109375 99.351562 140.425781 96.25 133.335938 92.117188 C 144.195312 99.925781 155.257812 107.449219 166.515625 114.679688 C 159.175781 115.070312 151.765625 114.207031 144.714844 112.136719 C 164.125 120.089844 184.339844 129.433594 203.75 137.386719 C 194.21875 136.75 182.65625 129.933594 173.699219 126.519531 C 180.328125 130.210938 187.605469 132.722656 193.910156 136.945312 C 202.351562 142.59375 210.476562 148.410156 219.636719 152.851562 C 211.953125 152.324219 202.617188 147.042969 195.378906 144.425781 C 189.523438 142.308594 183.808594 139.632812 177.921875 137.65625 C 184.117188 143.128906 194.21875 146.441406 201.671875 149.925781 C 210.933594 154.257812 220.316406 158.355469 229.976562 161.703125 C 222.101562 161.253906 214.285156 158.527344 206.703125 156.503906 C 201.085938 155.007812 194.953125 153.058594 190.273438 149.539062 C 207.328125 164.996094 234.566406 169.5 255.476562 177.050781 C 247.117188 175.363281 238.320312 175.882812 229.839844 174.308594 C 224.152344 173.25 219.636719 170.871094 214.253906 169.148438 C 221.601562 172.9375 228.574219 176.476562 236.632812 178.59375 C 245.300781 180.867188 254.644531 182.046875 262.914062 185.503906 C 255.246094 185.300781 248.179688 185.550781 240.648438 183.679688 C 234.1875 182.070312 227.871094 179.996094 221.339844 178.722656 C 218.625 178.195312 215.914062 177.980469 213.535156 176.648438 C 220.660156 181.347656 227.902344 184.089844 235.585938 187.917969 C 245.820312 193.011719 256.074219 197.378906 267.355469 199.679688 C 255.582031 199.132812 242.777344 195.066406 231.671875 191.199219 C 225.804688 189.160156 215.386719 187.59375 210.925781 183.230469 C 215.546875 187.855469 223.585938 190.710938 229.273438 193.945312 C 237.839844 198.816406 246.445312 202.65625 255.984375 205.226562 C 268.695312 208.660156 281.777344 212.273438 294.199219 216.398438 C 294.902344 217.761719 297.460938 218.261719 298.753906 217.4375 C 300.050781 216.609375 300.761719 215.144531 301.363281 213.726562 C 308.03125 197.917969 307.550781 179.246094 300.070312 163.796875 C 301.960938 169.578125 302.691406 175.726562 302.210938 181.789062 "/>
<path style=" stroke:none;fill-rule:nonzero;fill:rgb(45.098877%,45.098877%,45.098877%);fill-opacity:1;" d="M 288.800781 105.921875 C 285.855469 112.339844 283.421875 118.832031 281.914062 125.164062 C 284.011719 118.527344 286.238281 112.203125 288.800781 105.921875 "/>
<path style=" stroke:none;fill-rule:nonzero;fill:rgb(45.098877%,45.098877%,45.098877%);fill-opacity:1;" d="M 343.925781 140.609375 C 344.230469 140.234375 344.511719 139.84375 344.765625 139.417969 C 344.492188 139.824219 344.203125 140.207031 343.925781 140.609375 "/>
<path style=" stroke:none;fill-rule:nonzero;fill:rgb(45.098877%,45.098877%,45.098877%);fill-opacity:1;" d="M 375.691406 24.539062 C 377.21875 17.402344 379.816406 10.492188 383.347656 4.105469 C 375.988281 16.574219 366.332031 27.683594 355.011719 36.703125 C 360.058594 26.90625 365.609375 16.996094 371.632812 7.769531 C 357.265625 21.226562 345.585938 37.554688 337.507812 55.503906 C 339.121094 42.8125 346.023438 31.503906 352.757812 20.632812 C 339.183594 37.125 328.550781 56.03125 321.515625 76.195312 C 321.265625 70.484375 322.359375 64.710938 324.691406 59.484375 C 318.015625 69.125 313.019531 79.925781 310.007812 91.261719 C 308.175781 79.140625 312.039062 67.195312 317.203125 55.980469 C 310.910156 68.117188 297.597656 86.71875 288.800781 105.921875 C 286.238281 112.203125 284.011719 118.527344 281.914062 125.164062 C 283.421875 118.832031 285.855469 112.339844 288.800781 105.921875 C 290.058594 102.839844 291.378906 99.761719 292.847656 96.671875 C 283.226562 110.71875 275.871094 126.324219 271.171875 142.691406 C 269.261719 136.558594 269.847656 129.683594 272.761719 123.957031 C 263.988281 140.332031 262.652344 159.660156 263.460938 178.222656 C 260.773438 172.773438 259.171875 166.785156 258.789062 160.722656 C 257.5625 177.835938 264.035156 195.355469 276.089844 207.574219 C 277.167969 208.667969 278.375 209.769531 279.882812 210.050781 C 281.394531 210.339844 283.582031 208.925781 283.734375 207.394531 C 293.738281 198.96875 304.550781 190.769531 315.089844 182.867188 C 322.992188 176.953125 329.566406 170.195312 335.722656 162.492188 C 339.800781 157.386719 346.214844 151.757812 348.796875 145.75 C 346.265625 151.449219 337.171875 156.765625 332.472656 160.839844 C 323.589844 168.535156 313.203125 177.058594 302.46875 181.925781 C 312.097656 175.613281 320.003906 167.757812 327.625 159.238281 C 333.34375 152.832031 339.058594 147.609375 343.925781 140.609375 C 342.214844 142.726562 339.773438 143.925781 337.449219 145.421875 C 331.855469 149.023438 326.761719 153.289062 321.355469 157.167969 C 315.042969 161.703125 308.398438 164.089844 301.34375 167.113281 C 307.746094 160.839844 315.992188 156.285156 323.195312 150.960938 C 329.902344 146.011719 335.058594 140.140625 340.488281 133.902344 C 336.125 137.492188 332.808594 141.378906 327.917969 144.464844 C 320.625 149.070312 312.261719 151.851562 305.125 156.511719 C 321.75 141.75 345.382812 127.484375 355.5 106.804688 C 352.453125 111.8125 347.480469 115.890625 342.8125 119.363281 C 336.519531 124.042969 330.273438 129.480469 323.121094 132.808594 C 330.851562 126.125 338.054688 118.835938 345.054688 111.386719 C 350.683594 105.394531 358.839844 98.566406 362.5625 91.195312 C 357.832031 95.207031 353.523438 99.8125 348.855469 103.953125 C 343.101562 109.050781 336.386719 117.425781 329.441406 120.761719 C 336.308594 113.242188 341.707031 104.828125 347.445312 96.453125 C 351.75 90.191406 357.570312 85.164062 362.367188 79.28125 C 355.316406 85.777344 347.089844 96.386719 338.476562 100.511719 C 353.5625 85.9375 368.878906 69.773438 383.960938 55.1875 C 378.175781 59.722656 371.613281 63.269531 364.652344 65.625 C 372.429688 54.746094 379.921875 43.65625 387.113281 32.375 C 382.058594 38.839844 376.066406 44.574219 369.378906 49.324219 C 378.039062 32.558594 386.339844 15.613281 394.289062 -1.507812 C 388.085938 7.175781 381.886719 15.855469 375.691406 24.539062 "/>
<path style=" stroke:none;fill-rule:nonzero;fill:rgb(45.098877%,45.098877%,45.098877%);fill-opacity:1;" d="M 228.035156 254.683594 C 228.199219 254.53125 228.371094 254.371094 228.542969 254.222656 C 228.371094 254.371094 228.199219 254.523438 228.035156 254.683594 "/>
<path style=" stroke:none;fill-rule:nonzero;fill:rgb(45.098877%,45.098877%,45.098877%);fill-opacity:1;" d="M 267.964844 294.132812 C 267.773438 294.457031 267.605469 294.785156 267.402344 295.109375 C 267.628906 294.792969 267.804688 294.464844 267.964844 294.132812 "/>
<path style=" stroke:none;fill-rule:nonzero;fill:rgb(45.098877%,45.098877%,45.098877%);fill-opacity:1;" d="M 294.183594 217.917969 C 293.363281 217.609375 292.054688 218.214844 290.804688 218.757812 C 276.828125 224.785156 261.121094 223.257812 248.8125 226.125 C 253.496094 225.800781 258.617188 226.375 263.777344 227.019531 C 249.570312 230.90625 235.652344 232.332031 226.925781 243.921875 C 230.039062 240 234.941406 238.308594 240.296875 239.03125 C 229.945312 245.59375 221.226562 256.308594 214.582031 269.910156 C 218.792969 263.933594 223.238281 259 228.035156 254.683594 C 228.199219 254.523438 228.371094 254.371094 228.542969 254.222656 C 229.515625 253.359375 230.5 252.507812 231.507812 251.691406 C 230.484375 252.507812 229.503906 253.359375 228.542969 254.222656 C 228.371094 254.371094 228.199219 254.53125 228.035156 254.683594 C 212.34375 269.074219 204.230469 289.652344 193.929688 307.90625 C 200.238281 298.867188 207.625 289.917969 217.425781 286.53125 C 210.160156 293.632812 204.085938 302.871094 199.558594 312.65625 C 202.53125 308.433594 206.40625 304.894531 210.78125 302.550781 C 198.523438 317.402344 188.652344 334.9375 181.773438 349.011719 C 187.195312 341.816406 192.882812 332.03125 201.726562 325.152344 C 191.542969 339.761719 184.019531 354.171875 179.730469 367.34375 C 184.210938 362.238281 189.394531 355.292969 194.695312 347.5625 C 192.492188 360.558594 188.066406 372.945312 181.691406 379.066406 C 185.054688 376.183594 189.179688 373.097656 193.898438 369.78125 C 189.898438 377.777344 185.890625 384.8125 181.890625 389.867188 C 191.5 384.558594 200.84375 369.683594 209.910156 354.285156 C 209.035156 362.027344 207.15625 369.78125 204.355469 376.914062 C 209.90625 365.824219 215.191406 353.71875 220.203125 341.96875 C 221.234375 348.472656 221.21875 355.238281 220.152344 362.121094 C 224.890625 343.074219 230.378906 324.195312 235.785156 305.332031 C 236.160156 313.480469 231.519531 324.40625 229.496094 332.914062 C 231.976562 326.351562 233.390625 319.648438 236.351562 313.699219 C 240.304688 305.738281 244.4375 298.535156 247.296875 290.9375 C 247.59375 297.152344 244.027344 305.121094 242.527344 311.378906 C 241.300781 316.460938 239.585938 321.613281 238.484375 326.878906 C 242.511719 320.617188 244.335938 311.964844 246.558594 305.605469 C 249.320312 297.707031 251.875 290.074219 253.773438 282.425781 C 254.152344 288.613281 252.601562 294.832031 251.625 300.960938 C 250.902344 305.496094 249.847656 310.503906 247.324219 314.746094 C 258.730469 298.890625 259.910156 278.601562 264.273438 262.582031 C 263.652344 268.949219 264.933594 275.585938 264.417969 282.070312 C 264.074219 286.410156 262.5 289.964844 261.5625 294.167969 C 264.054688 288.328125 266.367188 282.886719 267.375 276.710938 C 268.464844 270.070312 268.5625 263.023438 270.683594 256.554688 C 271.25 262.292969 272.140625 267.527344 271.285156 273.316406 C 270.554688 278.28125 269.40625 283.164062 268.957031 288.136719 C 268.773438 290.214844 268.851562 292.25 267.964844 294.132812 C 271.238281 288.433594 272.851562 282.828125 275.34375 276.625 C 278.664062 268.375 281.359375 259.738281 282.21875 250.683594 C 282.882812 259.597656 280.6875 270.234375 278.496094 279.105469 C 277.335938 283.796875 277.011719 291.796875 273.761719 295.523438 C 277.222656 291.648438 278.855469 285.296875 281.039062 280.492188 C 284.328125 273.246094 286.738281 265.621094 287.992188 257.410156 C 289.664062 246.457031 291.457031 234.753906 293.742188 222.195312 C 294.824219 220.621094 295.003906 218.234375 294.183594 217.917969 "/>
<g clip-path="url(#clip1)" clip-rule="nonzero">
<path style=" stroke:none;fill-rule:nonzero;fill:rgb(45.098877%,45.098877%,45.098877%);fill-opacity:1;" d="M 723.007812 424.867188 C 721.652344 421.894531 719.785156 420.015625 718.765625 417.28125 C 713.75 403.917969 711.988281 389.589844 709.15625 375.601562 C 706.316406 361.613281 702.152344 347.429688 693.207031 336.292969 C 697.625 337.796875 701.644531 340.988281 704.496094 344.671875 C 693.539062 329.355469 677.78125 317.527344 660.015625 311.273438 C 666.300781 311.730469 672.5 313.382812 678.175781 316.125 C 659.980469 302.300781 637.058594 294.828125 614.21875 295.273438 C 618.59375 293.035156 623.714844 292.269531 628.558594 293.132812 C 607.207031 289.082031 584.792969 290.722656 564.265625 297.851562 C 566.828125 295.558594 569.558594 293.441406 572.425781 291.539062 C 568.121094 292.703125 563.878906 294.226562 560.089844 296.574219 C 555.996094 299.097656 552.542969 302.503906 549.121094 305.878906 C 542.355469 312.550781 535.59375 319.226562 528.832031 325.902344 C 536.695312 316.367188 544.550781 306.839844 552.410156 297.3125 C 537.859375 309.132812 522.867188 321.507812 514.617188 338.34375 C 515.460938 342.949219 516.355469 347.820312 519.433594 351.351562 C 519.949219 351.945312 520.535156 352.539062 521.300781 352.714844 C 521.847656 352.847656 522.425781 352.742188 522.992188 352.644531 C 531.863281 351.109375 540.976562 352.484375 549.789062 354.351562 C 547.054688 353.363281 544.421875 352.082031 541.960938 350.542969 C 541.347656 350.152344 540.679688 349.671875 540.574219 348.953125 C 541.65625 350.132812 543.027344 348.519531 544.609375 348.753906 C 549.433594 349.480469 553.898438 352.328125 556.582031 356.398438 C 555.460938 353.28125 553.695312 350.398438 551.429688 347.984375 C 556.265625 349.746094 560.859375 352.167969 565.039062 355.179688 C 563.707031 351.984375 561.902344 348.992188 559.699219 346.332031 C 565.328125 349.996094 570.949219 353.660156 576.578125 357.328125 C 574.308594 352.710938 571.378906 348.417969 567.910156 344.625 C 574.515625 349.28125 580.648438 354.601562 586.199219 360.480469 C 585.382812 354.941406 583.6875 349.535156 581.195312 344.523438 C 588.992188 349.574219 596.816406 354.640625 603.9375 360.609375 C 600.75 352.550781 596.078125 345.085938 590.21875 338.699219 C 598.613281 346.285156 605.882812 355.113281 611.722656 364.808594 C 609.269531 355.945312 605.75 347.378906 601.261719 339.359375 C 606.917969 348.445312 613.277344 357.085938 620.269531 365.183594 C 617.265625 355.609375 614.210938 345.949219 609.183594 337.261719 C 617.265625 346.351562 623.386719 357.175781 627.011719 368.789062 C 625.019531 357.070312 621.765625 345.558594 617.316406 334.535156 C 624.789062 345.28125 629.390625 357.722656 633.910156 370.007812 C 630.726562 359.238281 628.058594 348.3125 625.917969 337.289062 C 634.160156 353.996094 638.070312 372.4375 641.902344 390.664062 C 642.214844 381.914062 643.097656 372.570312 643.40625 363.820312 C 648.097656 374.535156 651.402344 385.847656 653.207031 397.40625 C 651.683594 386.769531 650.914062 376.433594 650.464844 365.699219 C 656.816406 378.625 661.839844 392.207031 665.417969 406.15625 C 663.441406 397.214844 662.433594 388.070312 662.40625 378.910156 C 665.277344 389.789062 667.59375 400.8125 669.34375 411.929688 C 668.113281 402.328125 667.40625 392.628906 667.972656 382.96875 C 669.53125 397.242188 672.191406 411.402344 675.933594 425.269531 C 674.980469 413.4375 674.453125 401.828125 674.761719 389.972656 C 679.296875 403.144531 684.152344 416.214844 689.320312 429.15625 C 686.546875 419.207031 684.757812 408.976562 684.007812 398.679688 C 690.652344 412.800781 694.550781 428.027344 698.164062 443.210938 C 696.746094 429.917969 695.328125 416.621094 693.914062 403.324219 C 698.546875 422.335938 702.363281 441.539062 705.347656 460.878906 C 704.238281 449.332031 704.21875 438.023438 705.445312 426.492188 C 712.398438 440.363281 720.273438 453.78125 729.003906 466.605469 C 718.910156 442.425781 713.003906 416.746094 707.152344 391.210938 C 710.242188 403.296875 716.8125 418.5 723.007812 424.867188 "/>
</g>
<g clip-path="url(#clip2)" clip-rule="nonzero">
<path style=" stroke:none;fill-rule:nonzero;fill:rgb(45.098877%,45.098877%,45.098877%);fill-opacity:1;" d="M 296.808594 218.167969 C 290.910156 210.722656 285.011719 203.269531 279.113281 195.816406 C 276.136719 192.046875 273.117188 188.253906 269.367188 185.246094 C 265.886719 182.453125 261.859375 180.425781 257.734375 178.742188 C 260.34375 180.992188 262.796875 183.414062 265.0625 186.003906 C 245.558594 176.425781 223.511719 172.0625 201.824219 173.480469 C 206.742188 173.207031 211.722656 174.59375 215.796875 177.351562 C 193.179688 174.125 169.515625 178.742188 149.769531 190.242188 C 155.742188 188.21875 162.09375 187.332031 168.386719 187.644531 C 149.996094 191.6875 132.914062 201.503906 120.167969 215.367188 C 123.441406 212.054688 127.824219 209.386719 132.386719 208.429688 C 122.15625 218.394531 116.292969 231.960938 111.773438 245.496094 C 107.246094 259.039062 103.75 273.042969 97.140625 285.691406 C 95.789062 288.28125 93.714844 289.917969 92 292.703125 C 98.925781 287.144531 107.304688 272.855469 111.851562 261.234375 C 102.921875 285.863281 93.933594 310.636719 80.957031 333.394531 C 91.191406 321.730469 100.648438 309.382812 109.234375 296.460938 C 109.042969 308.050781 107.644531 319.28125 105.140625 330.601562 C 110.460938 311.773438 116.589844 293.179688 123.515625 274.871094 C 120.484375 287.902344 117.457031 300.921875 114.425781 313.941406 C 119.859375 299.3125 125.597656 284.679688 133.914062 271.464844 C 131.90625 281.601562 128.886719 291.539062 124.917969 301.074219 C 131.628906 288.855469 138.039062 276.480469 144.148438 263.960938 C 143.007812 275.769531 141.070312 287.222656 138.679688 298.847656 C 144.082031 285.542969 148.457031 271.816406 151.742188 257.832031 C 151.121094 267.492188 149.242188 277.035156 146.851562 286.410156 C 149.941406 275.589844 153.585938 264.9375 157.765625 254.484375 C 156.625 263.570312 154.5 272.527344 151.449219 281.160156 C 156.703125 267.75 163.339844 254.886719 171.226562 242.828125 C 169.472656 253.429688 167.445312 263.597656 164.636719 273.964844 C 167.839844 262.714844 172.5 251.886719 178.464844 241.828125 C 177.699219 250.550781 177.441406 259.929688 176.675781 268.652344 C 182.707031 251.03125 188.835938 233.199219 199.058594 217.628906 C 195.585938 228.3125 191.605469 238.820312 187.136719 249.128906 C 193.121094 237.484375 199.203125 225.703125 207.933594 215.941406 C 202.175781 226.347656 197.535156 237.371094 194.128906 248.757812 C 199.144531 237.675781 206.535156 227.679688 215.671875 219.640625 C 209.621094 227.644531 205.417969 236.871094 201.257812 246.003906 C 209.191406 238.820312 216.554688 231.019531 223.277344 222.691406 C 217.839844 230.101562 213.304688 238.175781 209.792969 246.667969 C 216.765625 237.761719 225.0625 229.886719 234.320312 223.382812 C 227.722656 229.003906 222.175781 235.84375 218.03125 243.453125 C 225.828125 238.398438 234.207031 234.328125 242.566406 230.269531 C 239.472656 234.933594 237.136719 240.09375 235.652344 245.488281 C 241.875 240.332031 248.613281 235.804688 255.738281 231.988281 C 251.832031 235.328125 248.398438 239.230469 245.582031 243.53125 C 251.613281 240.582031 257.644531 237.628906 263.679688 234.675781 C 261.167969 237.054688 259.007812 239.804688 257.300781 242.808594 C 261.816406 240.335938 266.671875 238.484375 271.6875 237.332031 C 269.144531 239.449219 267.035156 242.097656 265.542969 245.054688 C 268.703125 241.339844 273.484375 239.058594 278.355469 238.933594 C 279.957031 238.886719 281.125 240.660156 282.34375 239.617188 C 282.144531 240.316406 281.425781 240.710938 280.773438 241.023438 C 278.136719 242.253906 275.371094 243.203125 272.535156 243.847656 C 281.511719 243.070312 290.726562 242.816406 299.34375 245.425781 C 299.886719 245.589844 300.453125 245.765625 301.011719 245.707031 C 301.789062 245.621094 302.449219 245.101562 303.027344 244.582031 C 306.515625 241.445312 307.996094 236.726562 309.394531 232.25 C 303.265625 214.53125 289.894531 200.421875 276.894531 186.914062 C 283.527344 197.332031 290.171875 207.75 296.808594 218.167969 "/>
</g>
<path style=" stroke:none;fill-rule:nonzero;fill:rgb(45.098877%,45.098877%,45.098877%);fill-opacity:1;" d="M 447.390625 116.945312 C 458.734375 122.144531 474.6875 126.605469 483.53125 125.796875 C 480.367188 124.984375 477.730469 125.25 474.964844 124.328125 C 461.421875 119.8125 449.183594 112.167969 436.519531 105.578125 C 423.851562 98.984375 410.210938 93.296875 395.9375 93.238281 C 399.875 90.753906 404.886719 89.632812 409.542969 89.738281 C 390.742188 88.625 371.632812 93.429688 355.589844 103.300781 C 359.90625 98.699219 365.09375 94.925781 370.792969 92.234375 C 348.605469 97.679688 328.375 110.796875 314.351562 128.835938 C 315.359375 124.015625 317.980469 119.554688 321.707031 116.332031 C 305.117188 130.382812 292.300781 148.832031 284.925781 169.28125 C 284.753906 165.839844 284.832031 162.394531 285.148438 158.96875 C 283.351562 163.046875 281.867188 167.304688 281.300781 171.71875 C 280.695312 176.488281 281.164062 181.320312 281.636719 186.097656 C 282.574219 195.554688 283.503906 205.011719 284.4375 214.472656 C 281.972656 202.359375 279.507812 190.257812 277.050781 178.152344 C 277.082031 196.90625 277.269531 216.335938 285.167969 233.339844 C 289.28125 235.585938 293.632812 237.953125 298.316406 237.785156 C 299.101562 237.753906 299.933594 237.675781 300.542969 237.195312 C 301 236.84375 301.277344 236.332031 301.554688 235.828125 C 305.941406 227.96875 312.742188 221.746094 319.734375 216.074219 C 317.25 217.582031 314.601562 218.820312 311.851562 219.765625 C 311.167969 220 310.378906 220.207031 309.746094 219.84375 C 311.347656 219.746094 310.957031 217.660156 312.136719 216.582031 C 315.726562 213.285156 320.757812 211.605469 325.605469 212.082031 C 322.476562 210.992188 319.128906 210.550781 315.820312 210.796875 C 320.234375 208.140625 325.007812 206.097656 329.976562 204.746094 C 326.660156 203.769531 323.195312 203.289062 319.742188 203.324219 C 326.128906 201.261719 332.519531 199.191406 338.90625 197.128906 C 333.890625 195.988281 328.710938 195.5625 323.578125 195.875 C 331.351562 193.667969 339.347656 192.246094 347.40625 191.632812 C 342.597656 188.78125 337.324219 186.699219 331.859375 185.484375 C 340.691406 182.597656 349.546875 179.707031 358.667969 177.925781 C 350.398438 175.332031 341.652344 174.269531 333.007812 174.804688 C 344.183594 173.050781 355.625 172.953125 366.828125 174.511719 C 358.398438 170.84375 349.527344 168.1875 340.46875 166.632812 C 351.082031 167.957031 361.804688 168.449219 372.5 168.109375 C 363.171875 164.425781 353.738281 160.714844 343.820312 159.160156 C 355.972656 158.59375 368.246094 160.648438 379.546875 165.136719 C 369.179688 159.3125 358.1875 154.597656 346.8125 151.121094 C 359.875 152.074219 372.4375 156.324219 384.832031 160.542969 C 374.457031 156.234375 364.289062 151.441406 354.371094 146.171875 C 372.542969 150.261719 389.339844 158.835938 405.921875 167.324219 C 399.308594 161.578125 392.609375 155.015625 386 149.269531 C 397.273438 152.359375 408.152344 156.914062 418.269531 162.777344 C 409.050781 157.273438 400.523438 151.363281 391.902344 144.964844 C 405.945312 148.15625 419.660156 152.792969 432.753906 158.789062 C 424.5625 154.703125 416.8125 149.730469 409.683594 143.992188 C 419.945312 148.601562 429.972656 153.742188 439.714844 159.371094 C 431.476562 154.289062 423.496094 148.734375 416.332031 142.21875 C 428.410156 149.992188 441.097656 156.828125 454.226562 162.640625 C 444.433594 155.945312 435.082031 149.050781 426.050781 141.347656 C 439.152344 146.113281 452.359375 150.558594 465.671875 154.679688 C 456.1875 150.578125 447.121094 145.53125 438.632812 139.632812 C 453.789062 143.359375 468.089844 149.902344 482.160156 156.648438 C 470.9375 149.386719 459.707031 142.125 448.484375 134.863281 C 466.171875 143.21875 483.503906 152.332031 500.414062 162.175781 C 490.746094 155.777344 481.941406 148.675781 473.746094 140.472656 C 488.902344 143.800781 504.285156 146.113281 519.75 147.390625 C 494.601562 140.035156 470.925781 128.464844 447.390625 116.945312 "/>
<path style=" stroke:none;fill-rule:nonzero;fill:rgb(45.098877%,45.098877%,45.098877%);fill-opacity:1;" d="M 535.988281 303.792969 C 538.972656 297.34375 541.5625 290.707031 543.738281 283.945312 C 541.0625 287.730469 538.039062 291.261719 534.722656 294.496094 C 539.574219 280.71875 541.621094 265.957031 540.707031 251.382812 C 538.722656 256.898438 536.652344 262.386719 534.503906 267.84375 C 536.148438 257.296875 536.71875 246.589844 536.226562 235.933594 C 535.710938 241.292969 534.652344 246.597656 533.070312 251.742188 C 532.105469 238.714844 529.554688 224.574219 526.164062 211.957031 C 525.503906 217.28125 524.84375 222.589844 524.1875 227.914062 C 521.464844 211.441406 512.59375 196.726562 503.902344 182.472656 C 505.292969 185.808594 505.804688 189.5 505.371094 193.082031 C 499.289062 185.082031 491.25 178.578125 482.152344 174.308594 C 484.789062 177.292969 487.042969 180.617188 488.84375 184.167969 C 483.140625 179.351562 476.539062 175.621094 469.476562 173.214844 C 476.117188 176.0625 481.332031 182.03125 483.253906 188.996094 C 480.117188 187.644531 476.972656 186.296875 473.832031 184.953125 C 477.746094 189.875 481.296875 195.074219 484.46875 200.503906 C 482.589844 199.371094 480.519531 198.550781 478.378906 198.085938 C 482.363281 204.324219 485.296875 211.238281 487.003906 218.445312 C 484.363281 216.859375 481.449219 215.726562 478.429688 215.117188 C 483.960938 224.621094 488.835938 234.5 493.007812 244.667969 C 490.273438 242.089844 487.539062 239.511719 484.804688 236.941406 C 488.644531 243.996094 491.960938 251.328125 494.734375 258.859375 C 492.183594 254.328125 488.730469 250.292969 484.636719 247.078125 C 489.269531 255.195312 492.394531 264.171875 493.796875 273.417969 C 491.992188 270.109375 489.257812 267.316406 485.996094 265.4375 C 490.851562 274.707031 495.070312 284.308594 498.601562 294.160156 C 496.402344 290.378906 492.671875 287.78125 489.066406 285.3125 C 494.5625 291.855469 498.476562 299.722656 500.390625 308.050781 C 498.4375 306.285156 496.175781 304.863281 493.753906 303.847656 C 498.082031 310.046875 501.167969 317.113281 502.773438 324.507812 C 500.285156 319.726562 495.761719 316.066406 490.574219 314.613281 C 495.875 318.9375 500.125 324.527344 502.886719 330.777344 C 499.722656 328.375 496.070312 326.609375 492.21875 325.625 C 497.410156 328.882812 501.484375 333.875 503.632812 339.609375 C 501.257812 337.488281 498.140625 336.203125 494.957031 336.039062 C 502.523438 338.863281 502.964844 349.921875 509.265625 354.96875 C 514.597656 359.238281 523.699219 357.195312 526.691406 351.054688 C 529.582031 345.132812 525.140625 336.472656 528.71875 330.9375 C 537.160156 317.890625 542.824219 303.058594 545.214844 287.710938 C 543.910156 293.851562 540.632812 299.558594 535.988281 303.792969 "/>
<path style=" stroke:none;fill-rule:nonzero;fill:rgb(45.098877%,45.098877%,45.098877%);fill-opacity:1;" d="M 506.894531 323.792969 L 504.75 321.871094 C 502.136719 311.6875 495.359375 302.9375 487.222656 296.28125 C 479.082031 289.621094 469.585938 284.84375 460.0625 280.386719 C 468.796875 284.363281 476.277344 291.039062 481.226562 299.253906 C 470.421875 287.570312 455.648438 279.636719 439.9375 277.085938 C 444.464844 279.375 448.828125 281.984375 452.980469 284.894531 C 441.84375 277.476562 428.128906 274.023438 414.808594 275.273438 C 419.898438 275.617188 424.792969 278.199219 427.945312 282.207031 C 422.164062 278.472656 415.46875 276.164062 408.617188 275.539062 C 412.285156 277.179688 415.863281 279.023438 419.316406 281.082031 C 408.839844 277.925781 397.582031 277.378906 386.855469 279.503906 C 394.253906 278.601562 401.847656 279.242188 408.996094 281.371094 C 389.378906 283.539062 370.53125 289.449219 352.980469 298.488281 C 365.5625 294.445312 378.570312 291.742188 391.726562 290.4375 C 372.746094 293.871094 354.621094 301.957031 339.394531 313.792969 C 350.609375 306.515625 363.960938 302.582031 377.332031 302.601562 C 356.824219 307.597656 341.640625 324.386719 327.808594 340.328125 C 334.550781 334.90625 341.796875 330.121094 349.429688 326.042969 C 337.984375 334.398438 329.246094 346.402344 324.808594 359.859375 C 326.804688 356.894531 328.425781 353.507812 331.339844 351.207031 C 341.691406 343.023438 352.050781 334.839844 362.40625 326.660156 C 356.257812 331.851562 353.210938 339.820312 351.269531 347.636719 C 349.332031 355.449219 346.761719 362.652344 344.824219 370.871094 C 350.503906 354.027344 360.679688 338.726562 374.011719 326.976562 C 365.425781 336.355469 359.988281 348.570312 358.753906 361.222656 C 360.566406 353.066406 367.507812 347.207031 374.039062 341.980469 C 382.472656 335.242188 390.914062 328.492188 399.765625 322.296875 C 389.792969 329.941406 382.375 340.855469 378.925781 352.941406 C 387.988281 339.535156 398.414062 325.132812 414.089844 321.160156 C 404.734375 329.929688 395 339.28125 391.230469 351.535156 C 401.730469 338.613281 414.808594 327.792969 429.480469 319.914062 C 415.964844 331.195312 405.433594 348.359375 398.558594 362.085938 C 403.738281 355.148438 407.699219 350.113281 413.40625 344.894531 C 418.050781 340.644531 421.664062 335.398438 425.90625 330.738281 C 430.144531 326.082031 435.3125 321.863281 441.492188 320.632812 C 432.980469 328.671875 426.691406 339.042969 423.503906 350.316406 C 429.085938 338.152344 439.023438 328.039062 451.082031 322.246094 C 445.105469 331.328125 440.980469 341.621094 439.042969 352.320312 C 443.945312 341.816406 450.605469 332.136719 458.667969 323.808594 C 454.082031 333.328125 451.28125 343.707031 450.449219 354.238281 C 453.769531 342.640625 457.527344 330.351562 466.675781 322.484375 C 462.964844 331.628906 460.242188 341.175781 458.574219 350.910156 C 463.492188 342.371094 470.714844 335.175781 479.273438 330.292969 C 475.753906 334.996094 472.234375 339.707031 468.71875 344.414062 C 474.34375 339.773438 481.171875 336.609375 488.34375 335.3125 C 483.796875 337.746094 479.828125 341.257812 476.863281 345.472656 C 482.140625 341.960938 488.175781 339.589844 494.4375 338.566406 C 489.527344 340.597656 485.230469 344.078125 482.234375 348.453125 C 490.390625 343.808594 500.605469 347.425781 509.167969 351.285156 C 510.390625 351.832031 511.75 352.398438 513.027344 352.003906 C 513.910156 351.726562 514.597656 351.035156 515.191406 350.324219 C 518.90625 345.921875 520.71875 339.773438 519.230469 334.207031 C 517.742188 328.644531 512.652344 324.03125 506.894531 323.792969 "/>
<path style=" stroke:none;fill-rule:nonzero;fill:rgb(45.098877%,45.098877%,45.098877%);fill-opacity:1;" d="M 429.585938 225.140625 C 442.71875 229.839844 455.09375 241.023438 463.628906 257.574219 C 452.636719 232.035156 435.738281 213.195312 417.183594 202.71875 C 430.179688 208.464844 442.777344 216.839844 454.3125 227.996094 C 438.898438 207.144531 420.273438 192.859375 400.589844 185.234375 C 407.929688 183.921875 415.652344 184.804688 423.074219 188.132812 C 412.363281 182.089844 400.898438 180.417969 390.167969 182.507812 C 393.761719 180.4375 397.445312 178.625 401.214844 177.109375 C 394.234375 176.503906 387.402344 178.386719 381.390625 182.230469 C 384.753906 177.492188 389.753906 174.855469 394.933594 175.429688 C 381.398438 170.941406 367.492188 173.597656 355.972656 181.121094 C 360.289062 178.132812 364.765625 175.46875 369.382812 173.214844 C 353.390625 174 338.449219 182.15625 326.667969 193.960938 C 332.316406 185.226562 340.03125 178.152344 348.941406 174.382812 C 339.214844 178.605469 329.507812 183.125 320.894531 189.644531 C 312.261719 196.167969 304.691406 204.753906 300.511719 215.007812 L 298.078125 216.632812 C 292.351562 215.832031 286.621094 219.703125 284.097656 224.917969 C 281.585938 230.15625 282.007812 236.480469 284.503906 241.734375 C 284.90625 242.578125 285.394531 243.425781 286.171875 243.929688 C 287.3125 244.652344 288.769531 244.460938 290.09375 244.230469 C 299.339844 242.6875 310.191406 241.464844 316.820312 248.949219 C 315.128906 243.300781 311.78125 238.347656 307.449219 234.960938 C 313.324219 237.621094 318.640625 241.847656 322.792969 247.335938 C 321.058594 241.78125 318.019531 236.804688 314.113281 233.007812 C 320.835938 236.230469 326.765625 241.667969 330.925781 248.6875 C 328.816406 242.261719 326.515625 235.960938 324.050781 229.785156 C 331.417969 237.429688 336.703125 247.933594 338.765625 259.464844 C 340.164062 247.730469 339.886719 235.710938 337.949219 224.054688 C 345.507812 235.636719 346.132812 251.585938 345.421875 266.285156 C 348.105469 253.726562 348.152344 240.351562 345.5625 227.746094 C 351.800781 239.867188 355.738281 253.886719 356.824219 268.410156 C 358.601562 254.820312 357.359375 240.710938 353.3125 227.96875 C 363.992188 238.378906 371.15625 254.683594 372.125 272.230469 C 373.089844 256.832031 369.761719 241.277344 363.039062 228.746094 C 368.851562 232.09375 372.984375 239.109375 375.835938 246.570312 C 378.703125 254.03125 380.5625 262.140625 383.492188 269.546875 C 387.074219 278.667969 388.871094 286.996094 390.585938 298.515625 C 390.472656 277.351562 385.917969 250.222656 374.945312 231.5 C 387.621094 246.214844 397.222656 265.851562 401.703125 288.164062 C 403.140625 269.890625 396.699219 253.042969 389.667969 238.207031 C 404.082031 248.851562 410 273.152344 412.398438 296.066406 C 414.449219 277.757812 410.96875 259.089844 403.277344 244.902344 C 410.230469 256.710938 416.121094 269.71875 421.347656 283.242188 C 425.394531 293.671875 429.191406 305.71875 426.710938 318.257812 C 431.984375 299.75 431.871094 279.105469 426.621094 261.898438 C 435.648438 284.546875 438.496094 312.605469 433.703125 340.039062 C 436.714844 327.175781 438.097656 315.300781 439.859375 302.867188 C 441.632812 290.4375 441.835938 277.046875 437.71875 266.597656 C 444.808594 283.347656 450.957031 300.929688 456.019531 319.253906 C 457.441406 324.40625 457.070312 330.496094 457.144531 336.175781 C 460.867188 313.183594 458.066406 289.753906 450.160156 271.714844 C 455.917969 281.503906 460.757812 292.566406 464.386719 304.664062 C 459.351562 272.367188 448.945312 239.691406 429.585938 225.140625 "/>
<path style=" stroke:none;fill-rule:nonzero;fill:rgb(45.098877%,45.098877%,45.098877%);fill-opacity:1;" d="M 419.460938 708.390625 C 418.355469 708.773438 417.125 709.246094 415.8125 709.851562 C 414.472656 710.40625 413.078125 711.113281 411.601562 711.890625 C 410.105469 712.632812 408.628906 713.589844 407.046875 714.53125 C 405.542969 715.558594 403.9375 716.585938 402.425781 717.804688 C 400.859375 718.945312 399.410156 720.285156 397.894531 721.582031 C 396.484375 722.964844 395.011719 724.316406 393.722656 725.804688 C 392.359375 727.230469 391.171875 728.773438 389.980469 730.242188 C 388.878906 731.769531 387.746094 733.234375 386.839844 734.722656 C 385.898438 736.199219 385.023438 737.613281 384.316406 738.980469 C 383.566406 740.296875 382.933594 741.609375 382.398438 742.828125 C 382.125 743.421875 381.871094 743.988281 381.636719 744.5 C 381.445312 744.976562 381.265625 745.410156 381.101562 745.800781 C 380.488281 747.339844 380.132812 748.222656 380.132812 748.222656 L 391.433594 751.511719 C 391.433594 751.511719 391.605469 750.578125 391.917969 748.941406 C 391.996094 748.546875 392.082031 748.105469 392.171875 747.617188 C 392.277344 747.203125 392.390625 746.75 392.503906 746.265625 C 392.71875 745.296875 393.003906 744.179688 393.425781 742.917969 C 393.789062 741.65625 394.289062 740.324219 394.84375 738.914062 C 395.363281 737.484375 396.085938 736.058594 396.78125 734.539062 C 397.5625 733.066406 398.328125 731.507812 399.285156 730.015625 C 400.167969 728.476562 401.234375 727.03125 402.257812 725.523438 C 403.382812 724.105469 404.457031 722.625 405.683594 721.3125 C 406.84375 719.921875 408.128906 718.703125 409.339844 717.464844 C 410.625 716.316406 411.835938 715.132812 413.101562 714.167969 C 414.34375 713.167969 415.542969 712.226562 416.707031 711.460938 C 417.847656 710.628906 418.941406 709.945312 419.929688 709.371094 C 420.90625 708.765625 421.769531 708.25 422.515625 707.890625 C 423.984375 707.125 424.828125 706.683594 424.828125 706.683594 C 424.828125 706.683594 423.910156 706.953125 422.316406 707.421875 C 421.503906 707.640625 420.550781 707.976562 419.460938 708.390625 "/>
<path style=" stroke:none;fill-rule:nonzero;fill:rgb(45.098877%,45.098877%,45.098877%);fill-opacity:1;" d="M 382.847656 749.527344 C 382.839844 749.515625 382.835938 749.503906 382.828125 749.488281 L 382.820312 749.496094 C 382.820312 749.496094 382.828125 749.507812 382.847656 749.527344 "/>
<path style=" stroke:none;fill-rule:nonzero;fill:rgb(45.098877%,45.098877%,45.098877%);fill-opacity:1;" d="M 396.417969 741.695312 C 396.402344 741.660156 396.398438 741.640625 396.398438 741.640625 L 395.824219 741.976562 C 395.855469 742.035156 395.894531 742.101562 395.929688 742.175781 C 396.0625 742.425781 396.152344 742.648438 396.246094 742.886719 C 396.609375 743.835938 396.695312 744.660156 396.707031 745.253906 C 396.707031 745.292969 396.699219 745.3125 396.699219 745.351562 C 396.761719 745.09375 396.832031 744.796875 396.949219 744.476562 C 397.03125 744.265625 397.140625 744.019531 397.234375 743.789062 C 397.214844 743.710938 397.207031 743.625 397.1875 743.546875 C 396.992188 742.820312 396.707031 742.195312 396.417969 741.695312 "/>
<path style=" stroke:none;fill-rule:nonzero;fill:rgb(45.098877%,45.098877%,45.098877%);fill-opacity:1;" d="M 433.722656 718.945312 C 432.15625 718.875 430.441406 718.855469 428.621094 718.921875 C 426.804688 718.960938 424.886719 719.089844 422.894531 719.308594 C 420.90625 719.519531 418.851562 719.816406 416.765625 720.230469 C 414.683594 720.621094 412.582031 721.140625 410.488281 721.742188 C 408.390625 722.328125 406.320312 723.039062 404.292969 723.804688 C 403.277344 724.191406 402.242188 724.652344 401.226562 725.074219 C 400.3125 725.484375 399.410156 725.890625 398.519531 726.292969 C 396.445312 727.335938 394.738281 728.285156 392.984375 729.445312 C 391.261719 730.582031 389.664062 731.835938 388.238281 733.1875 C 386.820312 734.53125 385.597656 735.96875 384.609375 737.382812 C 383.613281 738.789062 382.894531 740.160156 382.253906 741.65625 C 382.070312 742.082031 381.90625 742.472656 381.753906 742.800781 L 381.742188 742.832031 L 381.734375 742.847656 L 381.648438 743.148438 L 381.582031 743.386719 C 381.535156 743.578125 381.496094 743.777344 381.449219 743.960938 C 381.371094 744.410156 381.285156 744.960938 381.300781 745.714844 C 381.3125 746.457031 381.429688 747.421875 381.839844 748.496094 C 381.9375 748.765625 382.050781 749.015625 382.195312 749.292969 C 382.335938 749.570312 382.441406 749.773438 382.734375 750.207031 C 382.960938 750.542969 383.429688 751.078125 383.308594 750.945312 L 383.324219 750.957031 L 383.328125 750.972656 L 383.765625 751.425781 L 383.910156 751.558594 C 384.699219 752.296875 385.578125 752.8125 386.472656 753.152344 C 387.296875 753.46875 388.132812 753.628906 388.804688 753.667969 C 390.183594 753.746094 391.210938 753.523438 392.082031 753.21875 C 393.761719 752.585938 395.289062 751.605469 396.535156 749.398438 C 396.804688 748.910156 397.074219 748.230469 397.242188 747.570312 C 397.390625 746.964844 397.476562 746.253906 397.472656 745.609375 C 397.472656 745.285156 397.453125 744.980469 397.414062 744.6875 C 397.378906 744.375 397.308594 744.078125 397.234375 743.789062 C 397.140625 744.019531 397.03125 744.265625 396.949219 744.476562 C 396.832031 744.796875 396.761719 745.09375 396.699219 745.351562 C 396.699219 745.890625 396.640625 746.273438 396.589844 746.539062 L 396.507812 746.878906 L 396.476562 746.984375 L 396.398438 747.269531 L 396.398438 747.25 L 396.402344 747.214844 C 396.464844 746.878906 396.527344 746.496094 396.601562 746.074219 C 396.601562 745.96875 396.628906 745.695312 396.699219 745.351562 C 396.699219 745.3125 396.707031 745.292969 396.707031 745.253906 C 396.695312 744.660156 396.609375 743.835938 396.246094 742.886719 C 396.152344 742.648438 396.0625 742.425781 395.929688 742.175781 C 395.894531 742.101562 395.855469 742.035156 395.824219 741.976562 L 382.828125 749.488281 C 382.835938 749.503906 382.839844 749.515625 382.847656 749.527344 C 382.828125 749.507812 382.820312 749.496094 382.820312 749.496094 L 382.828125 749.488281 C 382.550781 749.015625 382.28125 748.414062 382.089844 747.730469 C 381.992188 747.375 381.917969 747.003906 381.871094 746.621094 C 381.832031 746.332031 381.8125 746.042969 381.8125 745.734375 C 381.808594 745.105469 381.890625 744.421875 382.039062 743.835938 C 382.195312 743.210938 382.460938 742.558594 382.710938 742.097656 C 383.894531 739.992188 385.304688 739.128906 386.808594 738.550781 C 387.59375 738.285156 388.523438 738.070312 389.792969 738.148438 C 390.414062 738.1875 391.199219 738.332031 391.96875 738.628906 C 392.8125 738.953125 393.636719 739.441406 394.386719 740.132812 L 394.527344 740.257812 L 394.949219 740.707031 L 394.941406 740.699219 L 394.921875 740.6875 C 394.78125 740.527344 395.238281 741.035156 395.433594 741.34375 C 395.632812 741.632812 395.730469 741.804688 395.824219 741.976562 L 396.398438 741.640625 C 396.398438 741.640625 396.402344 741.660156 396.417969 741.695312 C 396.707031 742.195312 396.992188 742.820312 397.1875 743.546875 C 397.207031 743.625 397.214844 743.710938 397.234375 743.789062 C 397.484375 743.203125 397.78125 742.582031 398.214844 741.886719 C 398.816406 740.917969 399.621094 739.855469 400.628906 738.761719 C 401.589844 737.6875 402.910156 736.476562 404.082031 735.460938 C 404.839844 734.875 405.609375 734.273438 406.386719 733.660156 C 407.105469 733.140625 407.804688 732.59375 408.582031 732.066406 C 410.144531 730.992188 411.785156 729.945312 413.480469 728.988281 C 415.179688 728.019531 416.917969 727.109375 418.691406 726.320312 C 420.449219 725.496094 422.238281 724.777344 423.988281 724.152344 C 425.75 723.507812 427.484375 722.964844 429.148438 722.519531 C 430.816406 722.042969 432.417969 721.679688 433.90625 721.390625 C 436.894531 720.773438 439.4375 720.515625 441.230469 720.332031 C 443.027344 720.207031 444.058594 720.140625 444.058594 720.140625 C 444.058594 720.140625 443.035156 719.960938 441.25 719.652344 C 439.457031 719.414062 436.875 719.050781 433.722656 718.945312 "/>
<path style=" stroke:none;fill-rule:nonzero;fill:rgb(45.098877%,45.098877%,45.098877%);fill-opacity:1;" d="M 439.046875 739.269531 C 438.019531 738.925781 436.839844 738.570312 435.527344 738.285156 C 434.222656 737.9375 432.792969 737.679688 431.265625 737.429688 C 429.738281 737.140625 428.101562 737.042969 426.410156 736.863281 C 424.714844 736.796875 422.941406 736.679688 421.148438 736.765625 C 419.34375 736.75 417.523438 736.96875 415.6875 737.121094 C 413.867188 737.398438 412.023438 737.613281 410.25 738.042969 C 408.449219 738.378906 406.722656 738.914062 405.03125 739.386719 C 403.382812 739.960938 401.742188 740.460938 400.257812 741.121094 C 398.761719 741.746094 397.347656 742.359375 396.09375 743.039062 C 394.824219 743.652344 393.648438 744.324219 392.609375 744.976562 C 392.085938 745.292969 391.601562 745.589844 391.144531 745.863281 C 390.757812 746.128906 390.394531 746.371094 390.0625 746.589844 C 388.792969 747.464844 388.0625 747.96875 388.0625 747.96875 L 394.28125 755.546875 C 394.28125 755.546875 394.914062 754.925781 396.015625 753.84375 C 396.292969 753.589844 396.609375 753.253906 396.925781 752.976562 C 397.226562 752.710938 397.558594 752.429688 397.90625 752.125 C 398.589844 751.503906 399.414062 750.808594 400.425781 750.089844 C 401.378906 749.324219 402.488281 748.59375 403.679688 747.828125 C 404.851562 747.03125 406.191406 746.367188 407.542969 745.59375 C 408.945312 744.9375 410.386719 744.183594 411.929688 743.613281 C 413.445312 742.9375 415.054688 742.472656 416.65625 741.917969 C 418.289062 741.503906 419.925781 741.007812 421.570312 740.726562 C 423.210938 740.355469 424.859375 740.183594 426.453125 739.96875 C 428.054688 739.855469 429.617188 739.675781 431.101562 739.699219 C 432.589844 739.675781 434 739.683594 435.296875 739.800781 C 436.601562 739.855469 437.796875 739.992188 438.851562 740.152344 C 439.910156 740.277344 440.835938 740.410156 441.585938 740.585938 C 443.09375 740.898438 443.957031 741.074219 443.957031 741.074219 C 443.957031 741.074219 443.140625 740.746094 441.699219 740.183594 C 440.980469 739.875 440.082031 739.578125 439.046875 739.269531 "/>
<path style=" stroke:none;fill-rule:nonzero;fill:rgb(45.098877%,45.098877%,45.098877%);fill-opacity:1;" d="M 351.253906 731 C 349.019531 724.910156 345.179688 717.054688 339.769531 710.453125 C 338.46875 708.878906 336.988281 707.203125 335.542969 705.746094 C 334.0625 704.292969 332.558594 702.925781 331.042969 701.695312 C 328 699.230469 324.933594 697.285156 322.226562 695.855469 C 319.511719 694.425781 317.152344 693.496094 315.484375 692.9375 C 313.816406 692.363281 312.855469 692.105469 312.855469 692.105469 C 312.855469 692.105469 313.730469 692.59375 315.1875 693.542969 C 316.644531 694.480469 318.652344 695.921875 320.835938 697.867188 C 323.011719 699.824219 325.335938 702.292969 327.484375 705.15625 C 328.558594 706.585938 329.574219 708.121094 330.535156 709.707031 C 331.492188 711.324219 332.300781 712.890625 333.144531 714.648438 C 336.328125 721.429688 337.832031 728.71875 338.398438 734.15625 C 338.679688 736.855469 338.78125 739.210938 338.785156 740.691406 C 338.800781 742.378906 338.804688 743.335938 338.804688 743.335938 L 354.359375 741.3125 C 354.359375 741.3125 354.09375 740.308594 353.640625 738.550781 C 353.140625 736.605469 352.382812 734.078125 351.253906 731 "/>
<path style=" stroke:none;fill-rule:nonzero;fill:rgb(45.098877%,45.098877%,45.098877%);fill-opacity:1;" d="M 348.988281 741.675781 C 348.855469 741.113281 348.699219 740.699219 348.519531 740.132812 C 347.777344 737.972656 346.367188 735.183594 344.414062 732.554688 C 343.453125 731.230469 342.367188 729.929688 341.226562 728.660156 C 340.117188 727.441406 338.867188 726.101562 337.5625 724.804688 C 334.9375 722.207031 331.960938 719.59375 328.742188 717.292969 C 327.136719 716.144531 325.476562 715.078125 323.789062 714.121094 C 322.964844 713.660156 322.054688 713.167969 321.277344 712.796875 C 320.421875 712.375 319.53125 711.960938 318.699219 711.617188 C 315.324219 710.203125 312.050781 709.300781 309.222656 708.851562 C 306.390625 708.375 304.03125 708.34375 302.394531 708.398438 C 301.578125 708.421875 300.945312 708.46875 300.511719 708.523438 C 300.082031 708.5625 299.847656 708.582031 299.847656 708.582031 C 299.847656 708.582031 300.078125 708.621094 300.503906 708.691406 C 300.933594 708.757812 301.554688 708.882812 302.332031 709.070312 C 303.890625 709.4375 306.082031 710.078125 308.519531 711.195312 C 310.964844 712.296875 313.640625 713.898438 316.222656 715.914062 C 316.875 716.421875 317.46875 716.929688 318.101562 717.484375 C 318.800781 718.089844 319.347656 718.625 319.980469 719.238281 C 321.183594 720.4375 322.339844 721.722656 323.425781 723.058594 C 325.605469 725.734375 327.503906 728.613281 329.121094 731.421875 C 329.929688 732.832031 330.640625 734.175781 331.339844 735.539062 C 332 736.855469 332.53125 738.054688 332.929688 739.117188 C 333.730469 741.257812 333.929688 742.800781 333.949219 743.757812 C 333.9375 743.96875 333.96875 744.25 333.921875 744.308594 C 333.898438 744.441406 333.882812 744.390625 333.882812 744.691406 C 333.878906 745.128906 333.871094 745.359375 333.871094 745.359375 L 349.449219 743.492188 C 349.449219 743.492188 349.390625 743.269531 349.277344 742.847656 C 349.207031 742.53125 349.105469 742.136719 348.988281 741.675781 "/>
<path style=" stroke:none;fill-rule:nonzero;fill:rgb(45.098877%,45.098877%,45.098877%);fill-opacity:1;" d="M 323.40625 741.464844 C 322.527344 740.777344 321.539062 740.046875 320.445312 739.328125 C 319.371094 738.5625 318.160156 737.804688 316.867188 737.027344 C 315.597656 736.230469 314.179688 735.507812 312.757812 734.722656 C 311.28125 734.003906 309.789062 733.234375 308.207031 732.582031 C 306.660156 731.867188 305.019531 731.296875 303.410156 730.675781 C 301.769531 730.140625 300.148438 729.570312 298.507812 729.148438 C 296.894531 728.667969 295.257812 728.332031 293.703125 727.972656 C 292.121094 727.691406 290.613281 727.367188 289.15625 727.195312 C 287.707031 727 286.34375 726.828125 285.070312 726.75 C 283.804688 726.628906 282.644531 726.578125 281.617188 726.558594 C 280.582031 726.519531 279.695312 726.492188 278.957031 726.523438 C 277.484375 726.542969 276.640625 726.558594 276.640625 726.558594 C 276.640625 726.558594 277.472656 726.667969 278.9375 726.859375 C 279.660156 726.941406 280.535156 727.085938 281.539062 727.277344 C 282.539062 727.445312 283.667969 727.65625 284.878906 727.960938 C 286.105469 728.21875 287.410156 728.582031 288.773438 728.976562 C 290.152344 729.34375 291.5625 729.871094 293.023438 730.359375 C 294.476562 730.925781 295.972656 731.46875 297.441406 732.152344 C 298.929688 732.777344 300.386719 733.550781 301.847656 734.265625 C 303.273438 735.078125 304.714844 735.828125 306.058594 736.707031 C 307.429688 737.523438 308.710938 738.445312 309.960938 739.296875 C 311.167969 740.21875 312.359375 741.0625 313.414062 741.964844 C 314.476562 742.847656 315.476562 743.683594 316.339844 744.519531 C 317.242188 745.324219 318.007812 746.082031 318.652344 746.761719 C 319.3125 747.421875 319.886719 748.011719 320.386719 748.59375 C 321.371094 749.6875 321.929688 750.3125 321.929688 750.3125 L 327.367188 744.660156 C 327.367188 744.660156 326.71875 744.117188 325.585938 743.183594 C 325.054688 742.722656 324.300781 742.136719 323.40625 741.464844 "/>
<path style=" stroke:none;fill-rule:nonzero;fill:rgb(45.098877%,45.098877%,45.098877%);fill-opacity:1;" d="M 465.917969 757.535156 C 464.867188 756.441406 463.0625 755.144531 460.671875 754.054688 C 459.484375 753.503906 458.167969 753.007812 456.769531 752.507812 C 455.371094 751.992188 453.863281 751.53125 452.292969 751.089844 C 450.726562 750.644531 449.078125 750.265625 447.382812 749.910156 C 445.699219 749.574219 443.957031 749.304688 442.210938 749.082031 C 440.457031 748.882812 438.699219 748.726562 436.953125 748.640625 C 435.207031 748.574219 433.480469 748.546875 431.8125 748.601562 C 430.136719 748.640625 428.515625 748.738281 426.980469 748.894531 C 425.441406 749.035156 423.996094 749.246094 422.652344 749.441406 C 421.3125 749.667969 420.101562 749.890625 418.996094 750.128906 C 417.902344 750.386719 416.867188 750.617188 416.148438 750.808594 C 414.710938 751.191406 413.886719 751.414062 413.886719 751.414062 L 417.261719 760.613281 C 417.261719 760.613281 418.03125 760.25 419.375 759.609375 C 419.996094 759.339844 420.746094 759.011719 421.609375 758.636719 C 422.480469 758.273438 423.523438 757.878906 424.640625 757.46875 C 425.777344 757.085938 427.007812 756.664062 428.339844 756.304688 C 429.664062 755.914062 431.082031 755.570312 432.5625 755.261719 C 434.046875 754.933594 435.601562 754.683594 437.191406 754.453125 C 438.777344 754.242188 440.40625 754.089844 442.039062 753.976562 C 443.679688 753.890625 445.320312 753.851562 446.949219 753.878906 C 448.570312 753.917969 450.179688 753.988281 451.726562 754.140625 C 453.277344 754.285156 454.785156 754.464844 456.195312 754.707031 C 457.621094 754.9375 458.957031 755.183594 460.15625 755.5 C 462.566406 756.105469 464.453125 757 465.644531 757.859375 C 466.246094 758.273438 466.675781 758.667969 466.957031 758.9375 C 467.234375 759.230469 467.386719 759.378906 467.386719 759.378906 C 467.386719 759.378906 467.265625 759.203125 467.042969 758.871094 C 466.804688 758.542969 466.449219 758.074219 465.917969 757.535156 "/>
<path style=" stroke:none;fill-rule:nonzero;fill:rgb(45.098877%,45.098877%,45.098877%);fill-opacity:1;" d="M 341.085938 735.109375 C 337.390625 732.390625 332.050781 728.671875 325.898438 726.464844 C 324.421875 725.917969 322.734375 725.445312 321.316406 725.148438 C 319.695312 724.773438 318.253906 724.585938 316.796875 724.441406 C 313.914062 724.164062 311.300781 724.183594 309.078125 724.265625 C 306.863281 724.351562 305.039062 724.488281 303.761719 724.582031 C 302.488281 724.679688 301.757812 724.738281 301.757812 724.738281 C 301.757812 724.738281 302.460938 724.921875 303.703125 725.253906 C 304.933594 725.582031 306.691406 726.058594 308.761719 726.695312 C 310.824219 727.335938 313.191406 728.152344 315.535156 729.246094 C 316.691406 729.78125 317.921875 730.414062 318.945312 731.070312 C 320.164062 731.808594 321.125 732.5 322.160156 733.359375 C 326.1875 736.644531 329.316406 740.960938 331.648438 744.382812 C 332.808594 746.089844 333.773438 747.578125 334.445312 748.621094 C 335.136719 749.6875 335.53125 750.300781 335.53125 750.300781 L 347.070312 739.683594 C 347.070312 739.683594 346.492188 739.230469 345.476562 738.445312 C 344.441406 737.640625 342.953125 736.488281 341.085938 735.109375 "/>
<path style=" stroke:none;fill-rule:nonzero;fill:rgb(45.098877%,45.098877%,45.098877%);fill-opacity:1;" d="M 430.554688 691.375 C 428.980469 689.644531 426.113281 687.519531 422.039062 686.605469 C 420.050781 686.136719 417.691406 686.019531 415.335938 686.347656 C 412.957031 686.71875 410.511719 687.535156 408.1875 688.773438 C 405.867188 690.011719 403.667969 691.644531 401.675781 693.5625 C 399.6875 695.480469 397.90625 697.683594 396.378906 699.988281 C 393.28125 704.632812 391.066406 709.6875 389.054688 714.289062 C 387.066406 718.878906 385.207031 723.171875 383.613281 726.847656 C 382.820312 728.679688 382.070312 730.332031 381.429688 732.019531 C 380.792969 733.679688 380.324219 735.300781 380.09375 736.75 C 379.855469 738.222656 379.828125 739.367188 379.902344 740.363281 C 379.976562 741.085938 380.007812 741.476562 380.007812 741.476562 L 387.757812 740.269531 C 387.757812 740.269531 387.703125 740 387.605469 739.488281 C 387.554688 739.242188 387.472656 738.539062 387.539062 737.699219 C 387.585938 736.832031 387.785156 735.683594 388.1875 734.261719 C 388.566406 732.855469 389.175781 731.105469 389.792969 729.199219 C 391.046875 725.390625 392.503906 720.957031 394.070312 716.199219 C 395.625 711.46875 397.292969 706.523438 399.730469 702.019531 C 400.949219 699.757812 402.363281 697.648438 403.988281 695.757812 C 405.625 693.875 407.46875 692.21875 409.453125 690.90625 C 411.4375 689.601562 413.566406 688.667969 415.6875 688.132812 C 417.839844 687.632812 419.882812 687.554688 421.820312 687.8125 C 425.691406 688.3125 428.628906 690.0625 430.316406 691.613281 C 431.148438 692.417969 431.734375 693.121094 432.082031 693.628906 C 432.433594 694.148438 432.617188 694.425781 432.617188 694.425781 C 432.617188 694.425781 432.457031 694.136719 432.160156 693.582031 C 431.851562 693.035156 431.332031 692.273438 430.554688 691.375 "/>
<path style=" stroke:none;fill-rule:nonzero;fill:rgb(45.098877%,45.098877%,45.098877%);fill-opacity:1;" d="M 452.722656 717.390625 C 449.269531 716.527344 445.15625 715.757812 440.667969 715.421875 C 438.429688 715.257812 436.089844 715.21875 433.710938 715.289062 C 431.363281 715.386719 428.820312 715.652344 426.546875 716.007812 C 424.054688 716.441406 421.730469 716.988281 419.390625 717.699219 C 417.082031 718.445312 414.84375 719.289062 412.734375 720.277344 C 408.515625 722.242188 404.832031 724.679688 401.90625 727.097656 C 400.457031 728.324219 399.183594 729.53125 398.105469 730.644531 C 397.050781 731.78125 396.132812 732.804688 395.410156 733.761719 C 394.625 734.707031 394.242188 735.308594 393.898438 735.769531 C 393.578125 736.21875 393.40625 736.457031 393.40625 736.457031 L 399.996094 740.707031 C 399.996094 740.707031 400.140625 740.449219 400.417969 739.972656 C 400.679688 739.519531 401.109375 738.707031 401.578125 738.03125 C 402.023438 737.292969 402.683594 736.375 403.476562 735.316406 C 404.285156 734.289062 405.253906 733.152344 406.382812 731.972656 C 408.667969 729.648438 411.652344 727.171875 415.238281 725.015625 C 417.023438 723.933594 418.96875 722.964844 420.992188 722.070312 C 423.007812 721.214844 425.203125 720.457031 427.296875 719.855469 C 429.632812 719.242188 431.734375 718.808594 434 718.464844 C 436.226562 718.164062 438.457031 717.972656 440.617188 717.898438 C 444.941406 717.773438 449.019531 718.097656 452.484375 718.589844 C 455.945312 719.097656 458.8125 719.757812 460.796875 720.277344 C 462.785156 720.796875 463.914062 721.140625 463.914062 721.140625 C 463.914062 721.140625 462.832031 720.679688 460.902344 719.960938 C 458.96875 719.230469 456.167969 718.269531 452.722656 717.390625 "/>
<path style=" stroke:none;fill-rule:nonzero;fill:rgb(45.098877%,45.098877%,45.098877%);fill-opacity:1;" d="M 333.027344 723.949219 C 332.699219 722.253906 332.269531 720.449219 331.589844 718.648438 C 330.953125 716.839844 330.09375 715.019531 329.113281 713.21875 C 328.136719 711.414062 326.964844 709.675781 325.710938 707.96875 C 324.425781 706.269531 323.054688 704.679688 321.546875 703.097656 C 320.136719 701.667969 318.542969 700.171875 317.027344 698.835938 C 315.476562 697.496094 313.9375 696.21875 312.433594 695.011719 C 309.429688 692.621094 306.628906 690.394531 304.222656 688.484375 C 299.464844 684.640625 296.628906 681.667969 296.628906 681.667969 C 296.628906 681.667969 297.25 682.484375 298.402344 683.863281 C 299.542969 685.246094 301.257812 687.164062 303.390625 689.386719 C 305.554688 691.566406 308.070312 694.117188 310.765625 696.851562 C 312.105469 698.214844 313.453125 699.640625 314.785156 701.109375 C 316.117188 702.605469 317.34375 704.066406 318.621094 705.714844 C 319.769531 707.242188 320.882812 708.898438 321.835938 710.542969 C 322.773438 712.210938 323.628906 713.878906 324.28125 715.546875 C 324.941406 717.199219 325.480469 718.828125 325.816406 720.390625 C 326.207031 721.9375 326.359375 723.414062 326.464844 724.757812 C 326.496094 725.425781 326.476562 726.0625 326.488281 726.667969 C 326.445312 727.261719 326.402344 727.828125 326.363281 728.355469 C 326.199219 729.410156 326.046875 730.300781 325.855469 730.894531 C 325.75 731.453125 325.429688 732.257812 325.289062 732.671875 C 325.132812 733.128906 325.054688 733.371094 325.054688 733.371094 L 332.59375 735.507812 C 332.59375 735.507812 332.652344 735.257812 332.75 734.789062 C 332.847656 734.28125 333.019531 733.761719 333.179688 732.546875 C 333.382812 731.386719 333.441406 730.121094 333.476562 728.691406 C 333.441406 727.972656 333.402344 727.214844 333.371094 726.414062 C 333.265625 725.628906 333.179688 724.792969 333.027344 723.949219 "/>
<path style=" stroke:none;fill-rule:nonzero;fill:rgb(45.098877%,45.098877%,45.098877%);fill-opacity:1;" d="M 713.023438 201.386719 C 713.980469 201.792969 714.921875 202.203125 715.863281 202.613281 C 714.949219 202.148438 713.992188 201.75 713.023438 201.386719 "/>
<path style=" stroke:none;fill-rule:nonzero;fill:rgb(45.098877%,45.098877%,45.098877%);fill-opacity:1;" d="M 721.867188 213.324219 C 715.546875 206.742188 707.335938 202 698.480469 199.804688 C 703.355469 199.066406 708.410156 199.640625 713.023438 201.386719 C 701.140625 196.253906 688.910156 191.371094 676.019531 190.84375 C 679.382812 190.257812 682.75 189.667969 686.117188 189.082031 C 671.328125 187.351562 656.007812 190.414062 643.019531 197.695312 C 645.71875 195.269531 648.746094 193.207031 651.988281 191.582031 C 632.894531 195.960938 612.125 201.417969 600.609375 217.273438 C 602.746094 212.707031 606.488281 208.910156 611.023438 206.710938 C 590.632812 216.226562 570.117188 228.996094 560.449219 249.3125 C 563.3125 242.472656 566.789062 235.890625 570.832031 229.679688 C 555.863281 246.03125 542.65625 263.980469 531.492188 283.125 C 524.496094 295.121094 518.1875 307.980469 516.984375 321.816406 C 516.605469 326.074219 517.132812 331.140625 520.792969 333.355469 C 523.824219 335.195312 527.894531 334.199219 530.691406 332.023438 C 533.484375 329.855469 535.34375 326.734375 537.332031 323.808594 C 543.816406 314.277344 552.382812 306.1875 562.257812 300.257812 C 559.257812 300.050781 556.257812 299.855469 553.269531 299.648438 C 562.960938 294.90625 572.664062 290.167969 582.355469 285.429688 C 578 284.132812 573.234375 284.257812 568.953125 285.773438 C 577.722656 278.425781 588.941406 274.042969 600.367188 273.488281 C 593.855469 272.585938 587.226562 272.480469 580.6875 273.1875 C 590.09375 266.972656 601.914062 264.539062 613.007812 266.542969 C 605.386719 264.21875 597.117188 264.046875 589.414062 266.0625 C 600.195312 261.390625 612.070312 259.242188 623.808594 259.835938 C 617.335938 258.425781 610.59375 258.273438 604.070312 259.394531 C 614.765625 252.058594 627.808594 248.203125 640.769531 248.539062 C 634.773438 247.777344 628.722656 247.480469 622.679688 247.664062 C 633.996094 242.550781 646.410156 239.910156 658.828125 239.96875 C 649.378906 238.683594 639.730469 238.886719 630.351562 240.582031 C 640.519531 234.75 652.046875 231.289062 663.75 230.558594 C 655.242188 229.589844 646.601562 229.792969 638.15625 231.152344 C 650.617188 227.136719 663.53125 224.542969 676.574219 223.414062 C 669.589844 222.65625 662.5 222.855469 655.558594 223.988281 C 669.601562 219.652344 683.980469 216.421875 698.53125 214.339844 C 692.890625 213.386719 687.160156 213.003906 681.445312 213.199219 C 691.429688 210.242188 702.214844 210.089844 712.28125 212.753906 C 707.648438 210.90625 703.015625 209.0625 698.382812 207.21875 C 706.578125 206.886719 714.863281 209.042969 721.867188 213.324219 "/>
</g>
</svg>
