<?xml version="1.0" encoding="UTF-8"?>
<svg xmlns="http://www.w3.org/2000/svg" xmlns:xlink="http://www.w3.org/1999/xlink" width="810pt" height="809.999993pt" viewBox="0 0 810 809.999993" version="1.2">
<defs>
<clipPath id="clip1">
  <path d="M 42.511719 33.21875 L 728 33.21875 L 728 737.46875 L 42.511719 737.46875 Z M 42.511719 33.21875 "/>
</clipPath>
</defs>
<g id="surface1">
<g clip-path="url(#clip1)" clip-rule="nonzero">
<path style=" stroke:none;fill-rule:nonzero;fill:rgb(45.098877%,45.098877%,45.098877%);fill-opacity:1;" d="M 317.011719 33.4375 C 283.023438 33.4375 252.972656 46.246094 220.777344 58.382812 C 188.582031 70.515625 154.023438 82.574219 110.199219 84.96875 C 109.597656 85.003906 109.003906 85.066406 108.410156 85.164062 C 107.816406 85.257812 107.230469 85.386719 106.648438 85.542969 C 106.070312 85.699219 105.5 85.886719 104.9375 86.105469 C 104.378906 86.324219 103.828125 86.570312 103.296875 86.84375 C 102.761719 87.121094 102.242188 87.421875 101.738281 87.75 C 101.238281 88.082031 100.753906 88.4375 100.285156 88.816406 C 99.820312 89.195312 99.378906 89.601562 98.953125 90.027344 C 98.53125 90.457031 98.132812 90.902344 97.753906 91.371094 C 97.378906 91.84375 97.027344 92.328125 96.703125 92.835938 C 96.378906 93.34375 96.082031 93.863281 95.8125 94.402344 C 95.542969 94.9375 95.300781 95.488281 95.089844 96.050781 C 94.878906 96.613281 94.695312 97.1875 94.542969 97.769531 C 94.390625 98.351562 94.269531 98.9375 94.179688 99.53125 C 94.089844 100.128906 94.03125 100.726562 94.003906 101.324219 C 93.976562 101.925781 93.980469 102.527344 94.015625 103.128906 C 94.050781 103.726562 94.117188 104.324219 94.214844 104.917969 C 102.09375 152.222656 90.519531 189.0625 75.585938 232.824219 C 60.652344 276.589844 42.511719 326.527344 42.511719 393.925781 C 42.511719 412.007812 47.035156 437.363281 51.390625 459.773438 C 55.75 482.1875 60.105469 500.8125 60.105469 500.8125 C 60.648438 503.15625 61.644531 505.289062 63.085938 507.214844 L 109.761719 569.507812 C 106.429688 572.265625 103.261719 575.160156 100.449219 578.328125 C 84.4375 596.351562 76.824219 619.707031 76.824219 642.835938 C 76.824219 665.960938 84.4375 689.316406 100.449219 707.339844 C 116.460938 725.363281 141.160156 737.25 171.183594 737.25 C 201.207031 737.25 225.910156 725.363281 241.921875 707.339844 C 257.933594 689.316406 265.542969 665.960938 265.542969 642.835938 C 265.542969 636.707031 264.917969 630.585938 263.835938 624.527344 L 274.324219 603.539062 C 285.964844 580.242188 309.675781 565.585938 335.710938 565.585938 L 435.566406 565.585938 C 461.597656 565.585938 485.308594 580.242188 496.953125 603.539062 L 507.441406 624.527344 C 506.355469 630.585938 505.730469 636.707031 505.730469 642.835938 C 505.730469 665.960938 513.34375 689.316406 529.355469 707.339844 C 545.367188 725.363281 570.066406 737.25 600.089844 737.25 C 630.113281 737.25 654.816406 725.363281 670.828125 707.339844 C 686.839844 689.316406 694.449219 665.960938 694.449219 642.835938 C 694.449219 619.707031 686.839844 596.351562 670.828125 578.328125 C 668.011719 575.160156 664.84375 572.265625 661.511719 569.507812 L 708.1875 507.214844 L 707.148438 506.445312 C 712.550781 502.882812 717.21875 498.433594 720.316406 493.132812 C 727.460938 480.925781 728.621094 466.625 725.8125 452.734375 C 725.8125 452.722656 725.8125 452.710938 725.8125 452.699219 C 721.710938 432.402344 716.476562 404.777344 696.828125 381.585938 C 677.179688 358.398438 643.554688 342.425781 591.511719 342.425781 C 541.78125 342.425781 483.054688 299.097656 434.457031 238.59375 C 385.863281 178.085938 347.535156 101.949219 333.664062 46.445312 C 333.4375 45.523438 333.132812 44.625 332.75 43.753906 C 332.371094 42.882812 331.921875 42.046875 331.40625 41.25 C 330.886719 40.453125 330.308594 39.703125 329.664062 39.003906 C 329.023438 38.300781 328.328125 37.660156 327.578125 37.074219 C 326.828125 36.488281 326.035156 35.96875 325.199219 35.515625 C 324.363281 35.0625 323.496094 34.679688 322.597656 34.371094 C 321.699219 34.0625 320.78125 33.828125 319.84375 33.671875 C 318.90625 33.515625 317.960938 33.4375 317.011719 33.4375 Z M 306.222656 69.613281 C 311.789062 88.46875 319.347656 108.445312 328.304688 128.757812 L 275.027344 155.410156 C 274.523438 155.664062 274.035156 155.9375 273.558594 156.238281 C 273.082031 156.535156 272.625 156.859375 272.179688 157.203125 C 271.734375 157.546875 271.308594 157.914062 270.902344 158.300781 C 270.492188 158.6875 270.105469 159.09375 269.738281 159.519531 C 269.371094 159.941406 269.023438 160.382812 268.699219 160.84375 C 268.375 161.300781 268.070312 161.777344 267.792969 162.265625 C 267.515625 162.753906 267.261719 163.253906 267.03125 163.765625 C 266.804688 164.28125 266.601562 164.804688 266.421875 165.335938 C 266.246094 165.871094 266.09375 166.410156 265.96875 166.960938 C 265.84375 167.507812 265.746094 168.0625 265.675781 168.621094 C 265.605469 169.175781 265.5625 169.738281 265.546875 170.300781 C 265.53125 170.859375 265.546875 171.421875 265.585938 171.984375 C 265.625 172.542969 265.691406 173.101562 265.785156 173.65625 C 265.882812 174.210938 266.003906 174.757812 266.152344 175.300781 C 266.300781 175.84375 266.472656 176.378906 266.675781 176.902344 C 266.875 177.425781 267.101562 177.941406 267.351562 178.445312 C 267.605469 178.945312 267.878906 179.4375 268.179688 179.914062 C 268.476562 180.386719 268.800781 180.847656 269.144531 181.292969 C 269.488281 181.738281 269.855469 182.164062 270.242188 182.570312 C 270.628906 182.980469 271.03125 183.367188 271.457031 183.734375 C 271.882812 184.105469 272.324219 184.453125 272.78125 184.777344 C 273.242188 185.101562 273.714844 185.402344 274.203125 185.679688 C 274.691406 185.960938 275.191406 186.214844 275.703125 186.441406 C 276.21875 186.671875 276.742188 186.875 277.273438 187.054688 C 277.808594 187.230469 278.347656 187.382812 278.894531 187.507812 C 279.445312 187.632812 279.996094 187.730469 280.554688 187.800781 C 281.113281 187.871094 281.671875 187.914062 282.234375 187.929688 C 282.792969 187.945312 283.355469 187.929688 283.917969 187.890625 C 284.476562 187.851562 285.035156 187.785156 285.589844 187.691406 C 286.140625 187.59375 286.691406 187.472656 287.230469 187.324219 C 287.773438 187.175781 288.308594 187 288.832031 186.800781 C 289.355469 186.601562 289.871094 186.375 290.375 186.121094 L 343.046875 159.769531 C 349.417969 172.179688 356.355469 184.554688 363.789062 196.851562 L 309.339844 224.074219 C 308.835938 224.328125 308.347656 224.601562 307.871094 224.902344 C 307.394531 225.199219 306.933594 225.523438 306.488281 225.867188 C 306.042969 226.210938 305.617188 226.578125 305.207031 226.964844 C 304.800781 227.351562 304.410156 227.753906 304.042969 228.179688 C 303.675781 228.605469 303.328125 229.046875 303 229.503906 C 302.675781 229.964844 302.375 230.4375 302.09375 230.925781 C 301.816406 231.414062 301.5625 231.917969 301.332031 232.429688 C 301.101562 232.945312 300.898438 233.46875 300.722656 234 C 300.542969 234.535156 300.390625 235.078125 300.265625 235.625 C 300.140625 236.171875 300.042969 236.726562 299.972656 237.285156 C 299.902344 237.84375 299.859375 238.402344 299.84375 238.964844 C 299.828125 239.527344 299.839844 240.089844 299.882812 240.652344 C 299.921875 241.210938 299.988281 241.769531 300.082031 242.324219 C 300.175781 242.878906 300.296875 243.429688 300.445312 243.972656 C 300.59375 244.515625 300.769531 245.046875 300.972656 245.574219 C 301.171875 246.097656 301.398438 246.613281 301.648438 247.117188 C 301.902344 247.621094 302.175781 248.109375 302.476562 248.585938 C 302.777344 249.0625 303.097656 249.523438 303.441406 249.964844 C 303.789062 250.410156 304.152344 250.835938 304.539062 251.246094 C 304.925781 251.65625 305.332031 252.042969 305.757812 252.410156 C 306.183594 252.78125 306.625 253.125 307.082031 253.453125 C 307.542969 253.777344 308.015625 254.078125 308.503906 254.355469 C 308.992188 254.636719 309.496094 254.890625 310.007812 255.117188 C 310.523438 255.347656 311.046875 255.550781 311.578125 255.730469 C 312.113281 255.90625 312.652344 256.058594 313.203125 256.183594 C 313.75 256.304688 314.304688 256.402344 314.863281 256.472656 C 315.417969 256.542969 315.980469 256.585938 316.542969 256.601562 C 317.105469 256.617188 317.664062 256.601562 318.226562 256.5625 C 318.785156 256.523438 319.34375 256.453125 319.898438 256.359375 C 320.453125 256.265625 321 256.140625 321.542969 255.992188 C 322.085938 255.84375 322.621094 255.667969 323.144531 255.46875 C 323.667969 255.265625 324.183594 255.039062 324.6875 254.785156 L 382.519531 225.851562 C 390.53125 237.527344 398.835938 249.054688 407.71875 260.117188 C 407.828125 260.253906 407.945312 260.382812 408.054688 260.519531 L 343.652344 292.738281 C 343.148438 292.992188 342.660156 293.265625 342.183594 293.566406 C 341.707031 293.863281 341.246094 294.1875 340.800781 294.53125 C 340.355469 294.875 339.929688 295.242188 339.519531 295.628906 C 339.113281 296.015625 338.722656 296.417969 338.355469 296.84375 C 337.988281 297.269531 337.640625 297.710938 337.3125 298.171875 C 336.988281 298.628906 336.6875 299.101562 336.40625 299.589844 C 336.128906 300.082031 335.875 300.582031 335.644531 301.09375 C 335.414062 301.609375 335.210938 302.132812 335.035156 302.664062 C 334.855469 303.199219 334.703125 303.742188 334.578125 304.289062 C 334.453125 304.839844 334.355469 305.390625 334.285156 305.949219 C 334.214844 306.507812 334.171875 307.066406 334.15625 307.628906 C 334.140625 308.191406 334.152344 308.753906 334.195312 309.316406 C 334.234375 309.878906 334.300781 310.433594 334.394531 310.988281 C 334.488281 311.542969 334.609375 312.09375 334.757812 312.636719 C 334.90625 313.179688 335.082031 313.710938 335.285156 314.238281 C 335.484375 314.761719 335.710938 315.277344 335.960938 315.78125 C 336.214844 316.285156 336.488281 316.773438 336.789062 317.25 C 337.089844 317.726562 337.410156 318.1875 337.753906 318.632812 C 338.101562 319.074219 338.464844 319.503906 338.851562 319.910156 C 339.238281 320.320312 339.644531 320.707031 340.070312 321.074219 C 340.496094 321.445312 340.9375 321.792969 341.394531 322.117188 C 341.855469 322.441406 342.328125 322.742188 342.816406 323.023438 C 343.304688 323.300781 343.808594 323.554688 344.320312 323.78125 C 344.835938 324.011719 345.359375 324.214844 345.890625 324.394531 C 346.425781 324.570312 346.964844 324.722656 347.515625 324.847656 C 348.0625 324.972656 348.617188 325.066406 349.175781 325.136719 C 349.730469 325.207031 350.292969 325.25 350.855469 325.265625 C 351.417969 325.28125 351.976562 325.265625 352.539062 325.226562 C 353.097656 325.1875 353.65625 325.121094 354.210938 325.023438 C 354.765625 324.929688 355.3125 324.808594 355.855469 324.65625 C 356.398438 324.507812 356.933594 324.332031 357.457031 324.132812 C 357.980469 323.929688 358.496094 323.703125 359 323.449219 L 427.625 289.117188 C 428.796875 288.539062 429.894531 287.835938 430.90625 287.007812 C 478.054688 338.445312 533.113281 376.761719 591.511719 376.761719 C 636.984375 376.761719 657.988281 388.828125 670.660156 403.78125 C 683.328125 418.738281 688.089844 439.328125 692.171875 459.503906 C 693.636719 466.761719 692.429688 472.859375 690.730469 475.765625 C 689.03125 478.671875 688.226562 479.757812 682.65625 479.757812 L 505.730469 479.757812 C 467.414062 479.757812 407.695312 463.277344 359.097656 446.363281 C 310.503906 429.449219 272.511719 412.566406 272.511719 412.566406 C 271.835938 412.277344 271.144531 412.03125 270.4375 411.828125 C 228.292969 390.894531 155.3125 378.714844 77.394531 377.09375 C 80.027344 324.347656 94.425781 283.964844 108.089844 243.921875 C 121.464844 204.71875 131.617188 163.964844 127.859375 116.6875 C 169.082031 112.167969 204.003906 101.382812 232.871094 90.5 C 261.117188 79.855469 284.257812 71.945312 306.222656 69.613281 Z M 78.566406 411.527344 C 145.445312 413.421875 210.390625 424.816406 245.371094 438.148438 L 234.984375 479.757812 L 90.730469 479.757812 C 89.167969 472.785156 87.914062 467.675781 85.101562 453.203125 C 82.320312 438.90625 80.09375 424.199219 78.566406 411.527344 Z M 277.472656 451.324219 C 289.554688 456.527344 308.382812 465.085938 347.839844 478.816406 C 397.894531 496.238281 458.265625 514.089844 505.730469 514.089844 L 660.136719 514.089844 L 630.984375 552.980469 C 621.523438 550.03125 611.167969 548.421875 600.089844 548.421875 C 570.066406 548.421875 545.367188 560.304688 529.355469 578.328125 C 527.804688 580.070312 526.425781 581.921875 525.03125 583.757812 C 506.859375 551.550781 472.789062 531.253906 435.566406 531.253906 L 335.710938 531.253906 C 298.484375 531.253906 264.414062 551.550781 246.242188 583.757812 C 244.851562 581.921875 243.46875 580.070312 241.921875 578.328125 C 225.910156 560.304688 201.207031 548.421875 171.183594 548.421875 C 160.105469 548.421875 149.75 550.03125 140.289062 552.980469 L 111.136719 514.089844 L 248.386719 514.089844 C 249.335938 514.089844 250.28125 514.011719 251.21875 513.855469 C 252.15625 513.699219 253.074219 513.464844 253.972656 513.15625 C 254.871094 512.847656 255.738281 512.464844 256.574219 512.011719 C 257.410156 511.558594 258.203125 511.039062 258.953125 510.453125 C 259.703125 509.867188 260.398438 509.226562 261.039062 508.523438 C 261.683594 507.824219 262.261719 507.074219 262.78125 506.277344 C 263.296875 505.480469 263.746094 504.644531 264.125 503.773438 C 264.507812 502.898438 264.8125 502.003906 265.039062 501.078125 Z M 171.183594 582.753906 C 192.628906 582.753906 206.53125 590.179688 216.253906 601.125 C 225.976562 612.070312 231.230469 627.335938 231.230469 642.835938 C 231.230469 658.332031 225.976562 673.597656 216.253906 684.542969 C 206.53125 695.488281 192.628906 702.914062 171.183594 702.914062 C 149.738281 702.914062 135.839844 695.488281 126.117188 684.542969 C 116.394531 673.597656 111.136719 658.332031 111.136719 642.835938 C 111.136719 627.335938 116.394531 612.070312 126.117188 601.125 C 135.839844 590.179688 149.738281 582.753906 171.183594 582.753906 Z M 600.089844 582.753906 C 621.535156 582.753906 635.4375 590.179688 645.160156 601.125 C 654.882812 612.070312 660.136719 627.335938 660.136719 642.835938 C 660.136719 658.332031 654.882812 673.597656 645.160156 684.542969 C 635.4375 695.488281 621.535156 702.914062 600.089844 702.914062 C 578.644531 702.914062 564.746094 695.488281 555.023438 684.542969 C 545.300781 673.597656 540.042969 658.332031 540.042969 642.835938 C 540.042969 627.335938 545.300781 612.070312 555.023438 601.125 C 564.746094 590.179688 578.644531 582.753906 600.089844 582.753906 Z M 171.183594 611.921875 C 170.171875 611.921875 169.164062 611.972656 168.15625 612.070312 C 167.148438 612.171875 166.148438 612.320312 165.15625 612.515625 C 164.164062 612.714844 163.183594 612.960938 162.214844 613.253906 C 161.246094 613.546875 160.296875 613.886719 159.359375 614.273438 C 158.425781 614.664062 157.511719 615.09375 156.621094 615.570312 C 155.726562 616.050781 154.863281 616.570312 154.019531 617.132812 C 153.179688 617.695312 152.367188 618.296875 151.585938 618.9375 C 150.800781 619.582031 150.054688 620.261719 149.339844 620.976562 C 148.621094 621.691406 147.945312 622.441406 147.300781 623.222656 C 146.660156 624.007812 146.058594 624.820312 145.496094 625.660156 C 144.933594 626.503906 144.414062 627.371094 143.9375 628.261719 C 143.460938 629.15625 143.027344 630.070312 142.640625 631.003906 C 142.253906 631.941406 141.914062 632.890625 141.621094 633.859375 C 141.324219 634.828125 141.082031 635.8125 140.882812 636.804688 C 140.6875 637.796875 140.539062 638.796875 140.4375 639.804688 C 140.339844 640.8125 140.289062 641.820312 140.289062 642.835938 C 140.289062 643.847656 140.339844 644.855469 140.4375 645.863281 C 140.539062 646.871094 140.6875 647.871094 140.882812 648.863281 C 141.082031 649.859375 141.324219 650.839844 141.621094 651.808594 C 141.914062 652.777344 142.253906 653.730469 142.640625 654.664062 C 143.027344 655.597656 143.460938 656.511719 143.9375 657.40625 C 144.414062 658.300781 144.933594 659.167969 145.496094 660.007812 C 146.058594 660.851562 146.660156 661.664062 147.300781 662.445312 C 147.945312 663.226562 148.621094 663.976562 149.339844 664.691406 C 150.054688 665.410156 150.800781 666.085938 151.585938 666.730469 C 152.367188 667.371094 153.179688 667.976562 154.019531 668.535156 C 154.863281 669.097656 155.726562 669.621094 156.621094 670.097656 C 157.511719 670.574219 158.425781 671.007812 159.363281 671.394531 C 160.296875 671.78125 161.246094 672.121094 162.214844 672.414062 C 163.183594 672.710938 164.164062 672.957031 165.15625 673.152344 C 166.148438 673.351562 167.148438 673.5 168.15625 673.597656 C 169.164062 673.695312 170.171875 673.746094 171.183594 673.746094 C 172.195312 673.746094 173.207031 673.695312 174.210938 673.597656 C 175.21875 673.5 176.21875 673.351562 177.210938 673.152344 C 178.203125 672.957031 179.183594 672.710938 180.152344 672.414062 C 181.121094 672.121094 182.070312 671.78125 183.007812 671.394531 C 183.941406 671.007812 184.855469 670.574219 185.746094 670.097656 C 186.640625 669.621094 187.507812 669.101562 188.347656 668.539062 C 189.191406 667.976562 190 667.371094 190.785156 666.730469 C 191.566406 666.085938 192.316406 665.410156 193.03125 664.691406 C 193.746094 663.976562 194.425781 663.226562 195.066406 662.445312 C 195.707031 661.664062 196.308594 660.851562 196.871094 660.007812 C 197.433594 659.167969 197.953125 658.300781 198.429688 657.40625 C 198.90625 656.511719 199.339844 655.597656 199.726562 654.664062 C 200.113281 653.730469 200.453125 652.777344 200.75 651.808594 C 201.042969 650.839844 201.289062 649.859375 201.484375 648.863281 C 201.683594 647.871094 201.832031 646.871094 201.929688 645.863281 C 202.03125 644.855469 202.078125 643.847656 202.078125 642.835938 C 202.078125 641.820312 202.03125 640.8125 201.929688 639.804688 C 201.832031 638.796875 201.683594 637.796875 201.484375 636.804688 C 201.289062 635.8125 201.042969 634.828125 200.75 633.859375 C 200.453125 632.890625 200.113281 631.941406 199.726562 631.003906 C 199.339844 630.070312 198.90625 629.15625 198.429688 628.261719 C 197.953125 627.371094 197.433594 626.503906 196.871094 625.660156 C 196.308594 624.820312 195.707031 624.007812 195.066406 623.222656 C 194.425781 622.441406 193.746094 621.691406 193.03125 620.976562 C 192.316406 620.261719 191.566406 619.582031 190.785156 618.9375 C 190 618.296875 189.191406 617.695312 188.347656 617.132812 C 187.507812 616.570312 186.640625 616.050781 185.746094 615.570312 C 184.855469 615.09375 183.941406 614.664062 183.007812 614.273438 C 182.070312 613.886719 181.121094 613.546875 180.152344 613.253906 C 179.183594 612.960938 178.203125 612.714844 177.210938 612.515625 C 176.21875 612.320312 175.21875 612.171875 174.210938 612.070312 C 173.207031 611.972656 172.195312 611.921875 171.183594 611.921875 Z M 600.089844 611.921875 C 599.078125 611.921875 598.070312 611.972656 597.0625 612.070312 C 596.054688 612.171875 595.054688 612.320312 594.0625 612.515625 C 593.070312 612.714844 592.089844 612.960938 591.121094 613.253906 C 590.152344 613.546875 589.203125 613.886719 588.265625 614.273438 C 587.332031 614.664062 586.417969 615.09375 585.527344 615.570312 C 584.632812 616.050781 583.765625 616.570312 582.925781 617.132812 C 582.085938 617.695312 581.273438 618.296875 580.492188 618.9375 C 579.707031 619.582031 578.960938 620.261719 578.246094 620.976562 C 577.527344 621.691406 576.851562 622.441406 576.207031 623.222656 C 575.566406 624.007812 574.964844 624.820312 574.402344 625.660156 C 573.839844 626.503906 573.320312 627.371094 572.84375 628.261719 C 572.367188 629.15625 571.933594 630.070312 571.546875 631.003906 C 571.160156 631.941406 570.820312 632.890625 570.527344 633.859375 C 570.230469 634.828125 569.988281 635.8125 569.789062 636.804688 C 569.59375 637.796875 569.445312 638.796875 569.34375 639.804688 C 569.246094 640.8125 569.195312 641.820312 569.195312 642.835938 C 569.195312 643.847656 569.246094 644.855469 569.34375 645.863281 C 569.445312 646.871094 569.59375 647.871094 569.789062 648.863281 C 569.988281 649.859375 570.230469 650.839844 570.527344 651.808594 C 570.820312 652.777344 571.160156 653.730469 571.546875 654.664062 C 571.933594 655.597656 572.367188 656.511719 572.84375 657.40625 C 573.320312 658.300781 573.839844 659.167969 574.402344 660.007812 C 574.964844 660.851562 575.566406 661.664062 576.207031 662.445312 C 576.851562 663.226562 577.527344 663.976562 578.246094 664.691406 C 578.960938 665.410156 579.707031 666.085938 580.492188 666.730469 C 581.273438 667.371094 582.085938 667.976562 582.925781 668.535156 C 583.765625 669.097656 584.632812 669.621094 585.527344 670.097656 C 586.417969 670.574219 587.332031 671.007812 588.265625 671.394531 C 589.203125 671.78125 590.152344 672.121094 591.121094 672.414062 C 592.089844 672.710938 593.070312 672.957031 594.0625 673.152344 C 595.054688 673.351562 596.054688 673.5 597.0625 673.597656 C 598.070312 673.695312 599.078125 673.746094 600.089844 673.746094 C 601.101562 673.746094 602.113281 673.695312 603.117188 673.597656 C 604.125 673.5 605.125 673.351562 606.117188 673.152344 C 607.109375 672.957031 608.089844 672.710938 609.058594 672.414062 C 610.027344 672.121094 610.976562 671.78125 611.914062 671.394531 C 612.847656 671.007812 613.761719 670.574219 614.652344 670.097656 C 615.546875 669.621094 616.414062 669.101562 617.253906 668.539062 C 618.097656 667.976562 618.90625 667.371094 619.691406 666.730469 C 620.472656 666.085938 621.222656 665.410156 621.9375 664.691406 C 622.652344 663.976562 623.332031 663.226562 623.972656 662.445312 C 624.613281 661.664062 625.214844 660.851562 625.777344 660.007812 C 626.339844 659.167969 626.859375 658.300781 627.335938 657.40625 C 627.8125 656.511719 628.246094 655.597656 628.632812 654.664062 C 629.019531 653.730469 629.359375 652.777344 629.65625 651.808594 C 629.949219 650.839844 630.195312 649.859375 630.390625 648.863281 C 630.589844 647.871094 630.738281 646.871094 630.835938 645.863281 C 630.933594 644.855469 630.984375 643.847656 630.984375 642.835938 C 630.984375 641.820312 630.933594 640.8125 630.835938 639.804688 C 630.738281 638.796875 630.589844 637.796875 630.390625 636.804688 C 630.195312 635.8125 629.949219 634.828125 629.65625 633.859375 C 629.359375 632.890625 629.019531 631.941406 628.632812 631.003906 C 628.246094 630.070312 627.8125 629.15625 627.335938 628.261719 C 626.859375 627.371094 626.339844 626.503906 625.777344 625.660156 C 625.214844 624.820312 624.613281 624.007812 623.972656 623.222656 C 623.332031 622.441406 622.652344 621.691406 621.9375 620.976562 C 621.222656 620.261719 620.472656 619.582031 619.691406 618.9375 C 618.90625 618.296875 618.097656 617.695312 617.253906 617.132812 C 616.414062 616.570312 615.546875 616.050781 614.652344 615.570312 C 613.761719 615.09375 612.847656 614.664062 611.914062 614.273438 C 610.976562 613.886719 610.027344 613.546875 609.058594 613.253906 C 608.089844 612.960938 607.109375 612.714844 606.117188 612.515625 C 605.125 612.320312 604.125 612.171875 603.117188 612.070312 C 602.113281 611.972656 601.101562 611.921875 600.089844 611.921875 Z M 600.089844 611.921875 "/>
</g>
</g>
</svg>
